<?xml version="1.0" standalone="no"?>
<!DOCTYPE svg PUBLIC "-//W3C//DTD SVG 20010904//EN"
 "http://www.w3.org/TR/2001/REC-SVG-20010904/DTD/svg10.dtd">
<svg version="1.0" xmlns="http://www.w3.org/2000/svg"
 width="2583.000000pt" height="1342.000000pt" viewBox="0 0 2583.000000 1342.000000"
 preserveAspectRatio="xMidYMid meet">

<g transform="translate(0.000000,1342.000000) scale(0.100000,-0.100000)"
fill="#000000" stroke="none">
<path d="M23146 12593 c-63 -3 -83 -8 -96 -23 -10 -11 -28 -20 -42 -20 -13 0
-33 -7 -44 -15 -10 -8 -27 -15 -36 -15 -9 0 -24 -8 -33 -17 -14 -13 -21 -14
-36 -5 -10 7 -25 12 -32 12 -19 0 -47 -33 -47 -55 0 -17 -1 -17 -19 -1 -16 15
-25 16 -60 6 -23 -6 -45 -8 -50 -6 -5 3 -16 -5 -25 -19 -10 -15 -26 -25 -41
-25 -13 0 -27 -4 -30 -10 -3 -5 -21 -10 -39 -10 -17 0 -37 -5 -44 -12 -10 -10
-90 -16 -262 -20 -31 -1 -59 5 -85 18 -21 11 -160 10 -253 -1 -35 -4 -58 -3
-68 5 -11 10 -17 10 -29 0 -12 -10 -15 -10 -15 3 0 32 -54 36 -105 7 -20 -11
-53 -20 -75 -20 -22 0 -40 -5 -40 -10 0 -7 -13 -8 -34 -5 -25 5 -35 3 -39 -9
-8 -20 -41 -21 -57 -2 -12 15 -30 11 -100 -24 -8 -4 -26 -3 -40 3 -30 12 -79
10 -95 -3 -7 -5 -47 -14 -91 -20 -43 -5 -95 -12 -114 -14 -19 -3 -80 -12 -135
-20 -120 -18 -196 -35 -212 -48 -7 -5 -45 -9 -85 -8 -97 3 -209 -8 -225 -22
-8 -6 -29 -8 -53 -4 -23 4 -49 2 -60 -4 -11 -6 -44 -12 -73 -14 -28 -2 -71 -9
-94 -15 -23 -6 -106 -16 -184 -21 -78 -6 -148 -15 -154 -20 -7 -6 -47 -15 -89
-20 -42 -5 -85 -14 -96 -20 -10 -5 -32 -10 -49 -10 -17 0 -31 -3 -31 -7 0 -5
-12 -9 -27 -9 -219 -11 -241 -15 -259 -39 -9 -12 -21 -16 -41 -12 -15 3 -40
-2 -56 -10 -16 -8 -38 -12 -49 -10 -11 3 -32 1 -47 -5 -14 -6 -30 -10 -35 -9
-5 1 -12 -2 -15 -7 -3 -4 -33 -13 -66 -19 -50 -9 -71 -8 -129 7 -37 10 -73 23
-78 28 -6 6 -16 8 -23 6 -6 -3 -18 2 -25 11 -14 17 -129 22 -146 5 -5 -5 -30
-10 -54 -9 -101 2 -135 -1 -138 -11 -2 -5 -19 -10 -38 -10 -19 0 -34 -4 -34
-10 0 -5 -8 -10 -18 -10 -10 0 -29 -11 -42 -25 -13 -14 -31 -25 -40 -25 -9 0
-25 -6 -35 -14 -14 -10 -23 -11 -37 -3 -13 9 -21 8 -30 -1 -6 -6 -30 -12 -53
-12 -22 -1 -56 -9 -75 -20 -65 -35 -80 -39 -142 -41 -35 -1 -72 -7 -83 -14
-11 -7 -76 -23 -145 -35 -69 -13 -130 -29 -137 -35 -6 -7 -23 -10 -37 -8 -14
3 -35 -2 -48 -11 -14 -10 -44 -16 -83 -16 -33 0 -78 -5 -100 -11 -22 -6 -62
-14 -90 -16 -27 -3 -53 -10 -56 -15 -4 -5 -28 -11 -55 -12 -27 -1 -59 -8 -70
-14 -12 -6 -46 -11 -75 -10 -70 2 -138 -8 -156 -23 -16 -14 -93 -24 -180 -23
-47 0 -63 -4 -63 -14 0 -10 -15 -13 -65 -9 -36 2 -69 -1 -72 -6 -3 -5 -30 -6
-65 -3 -50 6 -62 4 -85 -13 -29 -23 -53 -27 -70 -10 -9 9 -33 8 -95 -2 -46 -7
-89 -12 -96 -11 -7 2 -25 -6 -40 -16 -21 -15 -32 -17 -50 -9 -23 11 -76 -8
-67 -24 8 -12 -17 -17 -54 -11 -26 4 -37 1 -48 -14 -12 -16 -25 -19 -92 -16
-64 2 -80 0 -85 -13 -6 -17 -46 -36 -60 -28 -4 3 -2 10 5 15 26 18 -149 1
-177 -17 -15 -9 -45 -16 -77 -16 -29 0 -78 0 -109 0 -32 0 -73 1 -90 1 -18 0
-59 0 -91 0 -31 -1 -76 3 -100 7 -76 14 -189 10 -226 -9 -25 -13 -37 -15 -47
-7 -8 7 -32 9 -61 5 -27 -4 -59 -6 -73 -6 -14 -1 -41 -1 -60 -1 -19 0 -46 -7
-59 -16 -16 -10 -48 -16 -100 -16 -42 0 -81 -4 -88 -9 -7 -5 -47 -7 -90 -4
-119 8 -136 7 -161 -10 -18 -12 -39 -14 -102 -8 -65 5 -81 4 -85 -8 -4 -11
-25 -15 -78 -16 -94 -1 -175 -8 -209 -17 -16 -4 -36 -4 -45 1 -27 12 -96 14
-109 3 -15 -12 -56 -14 -111 -5 -24 3 -43 3 -43 -2 0 -7 -29 -7 -95 1 -33 3
-145 -14 -145 -23 0 -5 -15 -4 -32 1 -18 5 -47 6 -64 3 -19 -3 -35 -1 -39 6
-5 8 -11 8 -21 -1 -19 -15 -190 -15 -186 1 1 5 -6 11 -15 11 -10 1 -29 3 -43
4 -14 2 -74 -5 -135 -15 -124 -20 -230 -24 -323 -12 -47 6 -67 5 -80 -4 -10
-8 -47 -13 -94 -14 -42 0 -80 -4 -83 -10 -3 -5 -19 -10 -36 -10 -16 0 -29 5
-29 10 0 17 -47 11 -89 -11 -26 -13 -56 -20 -88 -19 -26 1 -68 -3 -92 -9 -24
-7 -51 -9 -60 -6 -11 3 -27 -5 -41 -20 -15 -16 -34 -25 -53 -25 -17 0 -39 -8
-49 -17 -11 -10 -38 -17 -68 -19 -27 -1 -54 -6 -61 -10 -21 -13 -191 -13 -212
0 -15 8 -21 8 -24 -1 -3 -9 -23 -10 -69 -6 -36 3 -64 2 -64 -3 0 -15 -91 -4
-135 16 -33 14 -61 17 -152 14 -62 -2 -125 1 -139 7 -24 9 -26 8 -14 -7 12
-14 11 -15 -16 -12 -19 2 -29 8 -28 18 1 20 -43 25 -74 8 -18 -9 -30 -9 -58 1
-21 8 -50 10 -72 6 -19 -4 -71 -7 -114 -7 -43 0 -78 -3 -78 -7 0 -5 -69 -9
-153 -10 -83 -1 -174 -4 -202 -7 -70 -9 -325 -9 -417 -1 -46 5 -78 4 -78 -2 0
-16 -93 -18 -109 -3 -10 9 -24 12 -45 7 -74 -17 -123 -15 -141 5 -22 25 -80
27 -89 4 -4 -11 -13 -14 -31 -10 -14 4 -25 2 -25 -4 0 -13 -36 -13 -63 1 -12
7 -64 11 -121 11 -84 0 -104 3 -124 19 -14 10 -32 19 -42 19 -9 0 -23 11 -30
25 -13 24 -40 35 -40 15 0 -5 -25 -7 -64 -3 -42 4 -66 2 -70 -6 -8 -12 -49
-15 -60 -3 -4 4 -22 8 -39 9 -68 3 -147 25 -157 43 -5 10 -17 20 -26 24 -22 9
-74 -24 -74 -47 0 -16 -4 -18 -23 -12 -58 19 -95 17 -117 -5 -20 -20 -25 -21
-46 -9 -18 9 -30 10 -46 1 -13 -6 -48 -16 -78 -23 -30 -7 -62 -19 -71 -26 -18
-15 -100 -11 -144 8 -16 6 -50 13 -75 15 -25 1 -56 5 -70 7 -15 3 -43 -1 -64
-8 -28 -10 -45 -11 -61 -3 -18 8 -29 7 -46 -6 -16 -11 -26 -12 -35 -5 -7 6
-47 11 -90 12 l-77 2 -2 -42 c-3 -65 -3 -66 -29 -59 -14 3 -27 2 -31 -3 -3 -5
-21 -7 -40 -4 -23 4 -35 2 -35 -6 0 -6 -6 -11 -14 -11 -7 0 -19 -6 -25 -14
-20 -24 -72 -28 -95 -7 -12 10 -44 21 -74 25 -47 6 -54 5 -59 -12 -3 -14 -20
-23 -59 -31 -47 -11 -58 -10 -79 3 -14 9 -49 18 -80 20 -30 3 -60 8 -66 12 -7
4 -18 -1 -25 -11 -12 -16 -17 -17 -38 -6 -14 8 -30 10 -38 5 -7 -5 -20 -9 -28
-11 -8 -1 -19 -8 -25 -16 -12 -16 -83 -21 -100 -7 -5 4 -21 10 -35 12 -19 2
-25 -1 -25 -17 0 -25 -42 -47 -66 -34 -32 17 -155 5 -127 -12 10 -6 10 -11 1
-20 -15 -15 -36 -1 -30 22 7 28 -24 50 -61 43 -19 -4 -42 0 -60 9 -27 13 -33
13 -60 -5 -18 -11 -32 -30 -36 -48 -4 -22 -11 -30 -28 -30 -12 0 -31 -9 -42
-19 -18 -17 -28 -19 -60 -11 -21 4 -53 6 -70 3 -22 -3 -36 0 -45 11 -16 19
-54 21 -69 4 -5 -7 -12 -24 -14 -38 -2 -16 -9 -24 -18 -21 -41 10 -102 13 -97
4 3 -5 2 -15 -3 -23 -7 -12 -15 -11 -45 6 -34 18 -37 18 -46 2 -16 -28 -64
-22 -99 12 -30 29 -50 38 -50 22 0 -4 5 -13 10 -18 8 -8 6 -15 -4 -23 -18 -15
-341 -22 -391 -9 -16 4 -54 4 -83 -2 -39 -7 -72 -6 -128 5 -85 16 -104 12
-104 -21 0 -22 -3 -23 -48 -17 -46 5 -50 4 -71 -26 -23 -32 -23 -32 -94 -26
-50 4 -73 2 -78 -7 -5 -7 -25 -11 -52 -9 -39 2 -48 -2 -75 -30 l-29 -32 -22
22 c-11 11 -28 21 -38 21 -9 0 -13 -3 -10 -6 12 -12 -41 -44 -71 -44 -17 0
-34 -4 -37 -10 -3 -5 -13 -10 -21 -10 -8 0 -28 -10 -44 -22 -24 -17 -32 -19
-45 -8 -17 14 -21 0 -4 -17 14 -14 -25 -37 -47 -29 -9 3 -24 -5 -37 -20 -22
-25 -29 -26 -132 -29 -94 -2 -110 -5 -124 -23 -10 -12 -33 -22 -62 -25 -41 -6
-51 -3 -85 23 -44 33 -74 38 -74 13 0 -10 -12 -31 -26 -47 -23 -26 -29 -28
-77 -22 -29 3 -71 8 -94 10 -24 3 -53 12 -65 20 -23 17 -64 21 -70 9 -2 -5
-18 -18 -36 -31 -25 -18 -36 -20 -51 -12 -36 19 -48 13 -43 -21 4 -28 2 -30
-21 -27 -15 2 -34 -5 -47 -17 -18 -16 -24 -17 -41 -7 -15 9 -30 10 -58 2 -21
-6 -46 -8 -54 -4 -10 3 -21 -2 -29 -15 -7 -12 -21 -21 -30 -21 -10 0 -18 -4
-18 -10 0 -5 -11 -17 -24 -25 -19 -13 -29 -14 -45 -5 -18 9 -22 7 -30 -13 -8
-19 -15 -23 -35 -20 -15 3 -26 1 -26 -5 0 -12 -49 -25 -105 -27 -157 -5 -149
-3 -193 -42 -23 -20 -42 -44 -42 -54 0 -13 -6 -16 -21 -12 -16 5 -29 -3 -49
-25 -21 -24 -36 -32 -62 -32 -28 0 -43 -10 -91 -60 -36 -39 -57 -69 -57 -84 0
-13 -7 -26 -15 -30 -8 -3 -15 -15 -15 -27 0 -11 -10 -35 -22 -52 -14 -20 -22
-48 -24 -81 -2 -46 1 -54 34 -87 21 -20 53 -55 72 -77 38 -45 74 -60 161 -68
52 -5 57 -3 73 21 13 20 21 23 34 16 16 -8 95 -14 160 -12 13 1 22 7 22 16 0
9 6 15 13 13 6 -1 24 8 38 21 38 35 89 50 114 34 17 -10 30 -10 70 3 28 8 61
18 75 20 13 3 29 9 36 15 6 5 39 7 72 5 53 -4 63 -2 72 14 21 40 37 48 87 43
72 -8 94 -7 138 7 67 20 128 20 171 0 39 -19 39 -18 51 4 6 12 27 28 47 36 20
7 36 19 36 24 1 33 16 36 91 17 79 -20 139 -18 139 5 0 8 7 14 15 14 9 0 19 8
22 18 4 9 10 20 15 23 16 11 136 3 151 -10 13 -10 15 -9 10 8 -5 19 -1 21 35
21 23 0 44 -5 48 -11 5 -8 10 -6 16 5 6 11 17 14 34 10 14 -4 33 0 47 9 12 8
46 18 74 22 52 7 83 33 83 69 0 11 17 13 100 9 86 -5 100 -3 106 11 4 10 18
16 40 16 23 0 34 5 34 14 0 26 34 23 57 -3 l21 -26 29 28 c18 17 40 27 59 27
19 0 34 7 42 21 11 16 20 20 42 15 21 -4 32 -1 38 10 6 10 29 16 74 19 61 4
67 3 93 -25 32 -33 60 -38 93 -14 39 27 74 14 99 -34 1 -2 10 1 21 7 13 7 18
17 15 30 -4 15 1 22 22 27 26 6 171 -3 186 -12 12 -7 -64 -147 -82 -151 -10
-3 -15 -11 -13 -18 3 -7 -4 -16 -15 -20 -21 -6 -38 -46 -27 -64 4 -5 2 -12 -4
-16 -5 -3 -10 -15 -10 -26 0 -12 -7 -19 -20 -19 -14 0 -21 -9 -25 -33 -5 -24
-15 -36 -37 -46 -23 -10 -28 -18 -24 -34 3 -13 -2 -29 -11 -40 -14 -15 -15
-23 -6 -48 10 -25 9 -31 -7 -39 -10 -6 -26 -10 -34 -10 -19 0 -22 -40 -4 -58
9 -9 10 -17 2 -30 -10 -16 -12 -119 -3 -152 3 -12 -9 -16 -61 -18 -144 -6
-211 -11 -221 -17 -5 -4 -14 -18 -19 -31 -9 -22 -14 -24 -51 -18 -25 4 -44 3
-48 -4 -4 -7 -19 -7 -50 1 -35 9 -45 9 -48 0 -4 -10 -9 -10 -23 0 -16 9 -22 8
-32 -4 -7 -8 -32 -27 -55 -42 -34 -21 -47 -25 -67 -18 -33 13 -62 4 -96 -30
-16 -16 -38 -29 -49 -29 -12 0 -30 -6 -42 -12 -17 -11 -22 -10 -30 5 -11 20
-49 23 -67 5 -7 -7 -12 -24 -12 -39 0 -41 -26 -62 -66 -54 -31 5 -35 3 -51
-29 -21 -44 -44 -52 -158 -49 -49 1 -121 2 -160 2 -38 1 -88 5 -109 10 -22 6
-47 6 -55 1 -10 -5 -29 -3 -50 6 -45 19 -51 18 -51 -7 0 -21 -3 -22 -93 -15
-177 13 -202 15 -222 20 -11 2 -47 1 -80 -3 -58 -6 -96 4 -116 32 -9 12 -38
-3 -44 -24 -4 -10 -3 -28 0 -40 7 -20 6 -20 -27 -3 -18 9 -39 25 -45 35 -19
26 -69 11 -65 -19 4 -27 4 -27 -58 4 -46 23 -56 25 -98 15 -78 -18 -133 -17
-147 2 -7 9 -17 17 -23 17 -15 0 -22 -26 -9 -39 16 -16 -5 -13 -30 4 -19 13
-26 13 -45 3 -13 -7 -25 -16 -28 -19 -3 -3 -22 -12 -43 -20 -30 -10 -42 -11
-57 -1 -27 16 -51 15 -78 -4 -12 -8 -31 -13 -41 -9 -24 7 -51 -19 -51 -51 0
-23 -3 -24 -35 -18 -33 6 -36 4 -50 -29 -17 -40 -39 -57 -66 -50 -26 7 -34
-20 -21 -65 14 -47 6 -85 -17 -77 -11 3 -21 -7 -33 -36 -10 -22 -25 -43 -35
-45 -16 -4 -18 -15 -15 -80 2 -79 14 -114 36 -114 8 0 16 -7 20 -15 3 -8 18
-21 33 -27 15 -7 34 -18 41 -25 7 -7 29 -13 47 -13 22 0 39 -7 48 -20 19 -27
72 -38 80 -16 7 18 87 23 87 6 0 -5 5 -10 10 -10 6 0 10 7 10 15 0 11 12 15
45 17 25 1 53 2 63 2 9 1 21 -9 27 -21 11 -26 28 -32 18 -6 -5 13 -3 15 13 9
69 -29 72 -30 88 -17 9 8 16 22 16 33 0 15 4 18 18 13 27 -12 142 -18 142 -8
0 5 14 7 32 5 26 -4 30 -2 25 12 -4 10 -1 16 8 16 8 0 15 4 15 10 0 6 9 6 26
0 15 -6 41 -8 58 -5 25 5 37 1 59 -19 15 -14 26 -31 25 -38 -2 -8 8 -14 24
-16 22 -3 29 2 34 22 5 22 10 24 36 19 16 -3 40 0 54 8 21 11 29 10 53 -4 52
-31 63 -23 73 48 4 25 34 34 72 22 23 -8 31 -7 41 6 14 20 43 21 66 4 9 -7 45
-12 80 -12 55 0 64 3 63 18 -2 22 1 22 42 -9 30 -24 37 -25 63 -14 16 6 32 18
35 26 3 8 16 14 30 14 13 0 47 7 75 17 50 16 52 16 80 -5 l28 -21 19 22 c24
29 62 46 97 45 15 0 36 7 46 17 11 9 30 18 43 20 48 8 118 31 130 43 7 7 25
12 40 12 22 0 28 4 26 18 -2 14 6 17 47 19 92 4 154 15 166 29 6 8 24 14 40
14 16 0 29 4 29 10 0 5 17 18 37 28 30 14 58 18 126 16 89 -2 131 -17 144 -50
7 -20 36 -17 61 6 28 26 36 25 66 -7 24 -26 28 -26 60 -15 30 11 40 11 65 -2
26 -14 29 -21 29 -61 0 -26 8 -63 18 -83 20 -41 35 -125 34 -186 0 -21 8 -53
19 -71 22 -38 28 -90 17 -153 -5 -29 -4 -47 4 -57 11 -14 17 -48 23 -140 2
-27 11 -49 29 -68 26 -27 43 -81 32 -99 -3 -5 0 -23 6 -39 11 -25 10 -32 -6
-50 -10 -11 -23 -35 -29 -53 -10 -29 -9 -36 11 -59 20 -23 21 -30 11 -57 -8
-22 -9 -38 0 -60 18 -47 -2 -100 -37 -100 -31 0 -53 -36 -47 -75 3 -21 0 -46
-8 -61 -11 -22 -11 -31 1 -60 l14 -34 -29 0 c-26 0 -31 -6 -52 -57 -28 -70
-69 -113 -107 -113 -15 0 -48 -10 -75 -22 -42 -20 -49 -29 -46 -54 2 -19 -78
-34 -94 -18 -3 4 -39 7 -79 9 -78 2 -108 -11 -108 -47 0 -15 -5 -17 -26 -12
-18 5 -29 1 -38 -11 -9 -12 -21 -16 -40 -13 -21 4 -31 -1 -47 -23 -24 -34 -47
-37 -78 -9 -17 14 -31 17 -54 13 -21 -4 -33 -1 -41 9 -20 26 -193 56 -226 38
-12 -7 -27 -7 -37 -2 -10 5 -44 12 -77 16 -48 5 -57 4 -53 -8 3 -8 0 -22 -7
-32 -13 -17 -15 -16 -41 4 -30 24 -65 28 -82 11 -7 -7 -23 -7 -53 1 -32 9 -49
9 -70 0 -16 -6 -39 -10 -52 -9 -14 2 -36 -4 -50 -13 -20 -14 -36 -15 -84 -9
-33 5 -60 5 -62 0 -2 -5 -19 -9 -39 -9 -19 0 -41 -7 -50 -15 -10 -10 -32 -15
-66 -14 -100 3 -212 -4 -218 -13 -4 -6 -21 -6 -45 1 -58 16 -74 14 -74 -10 0
-20 -4 -21 -40 -15 -45 7 -53 0 -15 -14 27 -10 34 -30 10 -30 -8 0 -24 6 -35
12 -16 10 -24 10 -39 1 -15 -10 -21 -10 -24 0 -3 7 -6 4 -6 -5 -1 -10 4 -18 9
-18 6 0 10 -9 10 -20 0 -13 -7 -20 -19 -20 -11 0 -22 -4 -26 -9 -3 -6 -36 -13
-73 -17 -70 -6 -94 -17 -105 -46 -4 -11 -13 -15 -27 -11 -17 5 -21 2 -20 -13
4 -31 2 -32 -36 -24 -24 6 -43 4 -61 -5 -25 -13 -25 -13 -4 -24 13 -7 21 -22
21 -36 0 -22 -4 -25 -40 -25 -36 0 -40 -2 -40 -25 0 -17 -7 -28 -22 -34 -21
-8 -23 -15 -24 -94 0 -69 -4 -91 -19 -107 -17 -19 -17 -21 -2 -38 10 -10 17
-30 17 -44 0 -19 8 -29 27 -38 16 -6 44 -20 63 -30 21 -12 38 -16 44 -10 6 6
16 5 28 -1 11 -6 41 -12 67 -13 26 -1 51 -5 57 -8 22 -13 92 -19 99 -8 4 6 21
10 39 9 40 -3 79 16 122 59 33 33 34 33 101 27 37 -3 76 -8 86 -11 10 -3 27 2
37 11 16 15 21 15 55 1 32 -14 39 -14 49 -2 14 17 116 37 135 26 8 -4 23 -3
32 3 14 9 32 6 80 -11 69 -25 93 -18 83 23 -6 25 9 41 28 28 7 -4 21 -6 30 -5
9 2 31 -4 48 -13 32 -17 50 -13 50 11 0 8 6 14 14 14 7 0 19 7 26 15 9 11 16
12 25 5 7 -6 19 -8 28 -4 11 4 17 -4 22 -35 8 -49 13 -53 54 -45 22 5 31 12
31 26 0 15 5 18 23 13 61 -18 94 -28 113 -35 11 -4 28 -4 36 1 11 6 19 5 23
-1 3 -5 19 -10 36 -10 19 0 29 -5 29 -15 0 -8 11 -17 25 -20 14 -3 37 -8 52
-11 15 -3 39 -14 55 -25 l28 -20 26 20 c18 14 34 18 55 14 24 -5 30 -1 39 21
8 23 15 26 54 26 40 0 47 -4 59 -27 19 -38 11 -53 -29 -53 -41 0 -43 -11 -8
-39 25 -19 25 -20 4 -31 -15 -8 -19 -17 -14 -34 6 -25 -22 -60 -58 -72 -13 -4
-18 -15 -18 -40 0 -19 -5 -34 -11 -34 -6 0 -9 -9 -6 -19 2 -11 -4 -34 -16 -53
-11 -18 -23 -44 -27 -58 -4 -16 -14 -25 -26 -25 -19 0 -23 -23 -10 -56 5 -12
0 -18 -19 -23 -14 -4 -30 -17 -35 -30 -5 -13 -13 -27 -18 -30 -6 -3 -8 -15 -5
-26 6 -21 -20 -84 -38 -96 -6 -3 -9 -21 -7 -39 1 -21 -4 -41 -14 -52 -9 -10
-20 -36 -23 -58 -10 -51 -22 -75 -40 -75 -21 0 -57 -87 -45 -110 8 -15 4 -23
-21 -43 -31 -24 -31 -25 -14 -50 16 -25 15 -26 -6 -37 -34 -19 -69 -63 -58
-74 12 -13 11 -63 -2 -71 -6 -4 -8 -13 -5 -20 2 -7 -13 -29 -35 -48 -38 -35
-39 -37 -34 -89 9 -86 7 -119 -8 -137 -8 -9 -15 -29 -15 -45 0 -15 -4 -31 -9
-35 -5 -3 -15 -26 -22 -51 -17 -58 -32 -90 -43 -90 -4 0 -8 -11 -8 -24 0 -14
-4 -27 -8 -30 -5 -3 -7 -30 -4 -60 4 -46 1 -57 -13 -62 -9 -4 -20 -2 -24 4 -4
6 -26 14 -49 18 -23 4 -45 10 -48 15 -6 10 -64 0 -82 -14 -19 -15 -14 -24 20
-36 l32 -11 -26 -27 c-24 -24 -30 -25 -54 -15 -19 9 -24 17 -19 30 16 38 11
47 -25 47 -30 0 -35 -3 -34 -22 0 -16 -5 -23 -17 -23 -10 0 -27 -14 -39 -31
-14 -19 -28 -28 -37 -25 -19 8 -73 -30 -73 -51 0 -8 -6 -13 -12 -10 -11 3 -88
-30 -88 -38 0 -1 7 -18 15 -38 15 -37 11 -46 -28 -60 -9 -4 -17 -10 -16 -14 1
-4 1 -19 0 -32 -1 -19 -4 -21 -15 -12 -22 19 -30 -6 -12 -34 9 -13 12 -26 7
-30 -6 -3 -7 -21 -4 -40 5 -30 3 -35 -21 -41 -31 -8 -34 -34 -6 -59 11 -10 16
-21 11 -24 -14 -9 -2 -57 21 -80 10 -12 16 -26 13 -32 -8 -12 23 -49 41 -49 7
0 18 -9 24 -20 7 -13 21 -20 39 -20 16 0 36 -9 47 -21 10 -12 33 -28 51 -35
30 -13 34 -12 59 11 21 19 38 25 75 25 26 0 51 -5 55 -12 4 -7 3 -8 -4 -4 -19
11 -14 -9 9 -38 11 -14 27 -26 34 -26 8 0 12 -6 9 -14 -3 -8 3 -22 14 -32 17
-14 20 -26 16 -70 -3 -38 0 -55 12 -65 31 -26 56 -90 50 -130 -4 -23 0 -53 10
-80 9 -24 18 -66 20 -93 3 -32 11 -57 24 -71 14 -14 20 -35 20 -64 0 -23 9
-62 20 -86 26 -56 14 -95 -19 -62 -10 10 -17 7 -35 -15 -16 -20 -31 -28 -54
-28 -25 0 -35 -5 -42 -25 -14 -37 -58 -32 -73 8 -6 15 -13 17 -38 12 -21 -5
-44 -1 -70 11 -30 13 -42 15 -51 6 -7 -7 -26 -12 -44 -12 -23 0 -38 -7 -51
-26 -15 -20 -31 -27 -76 -33 -34 -5 -66 -16 -80 -28 -12 -11 -30 -23 -40 -26
-13 -5 -18 -15 -16 -34 4 -43 -10 -72 -42 -88 -24 -13 -28 -19 -19 -35 16 -29
12 -40 -14 -40 -30 0 -39 -13 -43 -59 -2 -19 -9 -41 -14 -48 -14 -17 -2 -33
19 -26 9 3 3 -8 -15 -23 -30 -27 -32 -34 -33 -94 0 -36 -1 -75 -1 -88 -2 -33
19 -52 57 -52 23 0 34 -5 34 -15 0 -16 36 -39 49 -31 5 3 23 -7 40 -23 16 -15
44 -34 61 -41 28 -11 36 -11 70 8 32 17 42 18 56 8 9 -7 14 -18 10 -24 -3 -6
2 -15 12 -21 14 -7 21 -5 29 9 15 23 144 48 140 27 -3 -15 77 -32 100 -22 10
5 27 9 38 10 11 1 35 5 53 9 18 4 32 4 32 -1 0 -15 93 -6 105 10 7 10 25 13
67 9 49 -4 58 -2 70 17 17 27 30 27 65 -3 29 -24 33 -25 168 -21 140 5 214 22
199 47 -9 14 81 1 107 -15 15 -9 21 -8 34 8 14 20 15 20 21 -2 6 -23 42 -41
53 -27 3 5 22 10 41 10 45 2 80 8 104 19 13 6 21 3 27 -8 6 -9 17 -13 29 -10
12 3 20 0 20 -8 0 -7 3 -9 7 -5 4 4 12 -8 18 -25 10 -30 16 -33 56 -36 85 -5
106 -13 133 -47 23 -30 24 -35 10 -47 -9 -8 -14 -22 -11 -37 3 -18 0 -26 -14
-29 -13 -4 -21 -18 -25 -43 -5 -29 -10 -37 -22 -33 -12 5 -14 1 -9 -19 8 -29
-20 -64 -57 -74 -27 -6 -40 -50 -30 -100 4 -21 1 -34 -10 -43 -8 -7 -12 -19
-9 -27 3 -8 -1 -14 -8 -14 -15 0 -64 -57 -77 -88 -10 -24 -90 -95 -125 -110
-16 -7 -31 -21 -34 -32 -3 -11 -13 -20 -22 -20 -9 0 -22 -4 -30 -9 -13 -8 -13
-12 -1 -26 12 -15 12 -18 -3 -26 -9 -5 -19 -25 -23 -44 -3 -20 -17 -44 -30
-54 -20 -16 -24 -28 -24 -70 0 -28 4 -51 9 -51 5 0 12 -8 15 -18 3 -9 33 -29
66 -45 65 -29 80 -33 80 -17 0 6 18 10 39 10 22 0 43 5 46 10 3 6 37 10 74 10
65 0 69 1 80 28 12 28 86 82 114 82 8 0 23 8 33 17 18 19 28 25 84 58 19 11
51 37 70 57 20 20 49 39 65 42 17 3 40 19 54 38 14 18 36 43 48 55 12 12 23
33 25 45 2 17 12 24 43 30 43 9 55 21 55 56 0 15 15 37 41 60 28 25 39 42 35
55 -4 18 60 120 87 138 5 4 4 15 -3 28 -16 31 3 51 46 51 24 0 34 5 34 15 0 8
4 15 9 15 17 0 41 31 41 54 0 49 47 68 160 66 58 0 94 14 100 41 6 24 8 24 93
20 59 -2 87 0 87 8 0 6 16 11 35 11 26 0 35 4 35 16 0 14 8 16 53 10 28 -4 77
-9 107 -10 30 -2 89 -8 130 -14 80 -12 150 -8 188 11 17 8 42 8 96 -2 40 -6
77 -11 82 -10 5 1 17 -1 27 -5 9 -5 29 -5 45 -1 15 5 41 7 57 6 17 -1 50 2 75
8 30 7 48 7 57 -1 8 -7 22 -7 40 0 16 5 52 6 81 2 30 -4 55 -3 59 3 3 5 23 7
45 4 26 -3 41 -1 44 7 5 14 117 10 145 -5 10 -5 28 -2 50 10 26 14 69 20 174
25 76 4 144 10 149 14 6 3 53 7 105 8 52 2 104 7 116 12 11 5 33 15 48 23 22
10 34 10 62 0 28 -10 38 -9 57 2 31 20 175 39 213 29 16 -5 48 -4 70 0 93 21
97 21 107 4 12 -21 54 -21 66 0 10 18 99 30 252 35 56 2 91 7 102 17 12 10 50
15 125 17 143 4 145 5 158 14 5 5 46 9 89 10 43 0 84 5 91 11 17 14 333 16
368 2 29 -12 103 -6 123 9 6 5 34 10 62 11 36 2 52 7 52 17 0 9 7 11 23 6 59
-18 78 -18 93 4 13 18 22 20 54 15 22 -4 47 -3 57 1 64 27 278 44 314 24 30
-15 63 -10 77 12 11 17 21 20 45 17 18 -3 45 0 60 7 20 8 48 9 95 3 56 -8 68
-7 78 6 14 20 31 20 68 1 27 -14 32 -14 63 5 19 11 44 20 56 20 12 0 41 7 65
16 35 14 47 15 66 4 19 -10 28 -10 47 1 13 6 42 11 66 10 23 0 45 4 49 10 4 8
32 9 89 4 56 -4 90 -3 105 5 19 10 125 21 193 20 15 0 35 6 43 15 21 21 51 19
64 -5 12 -23 50 -27 50 -5 0 18 50 21 67 4 6 -6 37 -13 70 -16 45 -4 61 -2 71
10 10 12 20 13 44 6 24 -6 38 -5 55 6 12 8 35 15 51 15 16 0 32 3 36 7 4 5 36
9 69 10 34 0 81 4 103 8 27 4 44 3 48 -4 8 -13 46 -15 46 -2 0 15 114 32 320
48 41 3 77 9 80 14 3 4 37 10 75 12 89 5 224 26 247 38 26 14 95 11 111 -5 15
-16 59 -13 106 6 14 6 51 13 81 15 30 3 64 10 75 16 11 6 29 12 40 13 193 16
398 27 483 24 27 0 73 5 82 10 6 4 101 8 248 12 86 3 115 7 122 18 7 11 30 15
77 17 69 1 203 8 348 17 44 3 101 6 127 6 28 0 53 6 62 15 10 10 41 16 98 19
46 2 96 8 111 15 15 6 45 10 66 9 21 0 52 6 70 15 18 9 38 14 45 11 7 -3 33 2
59 11 25 8 72 17 104 19 32 2 81 11 108 20 28 9 70 16 95 16 25 0 70 7 100 15
30 9 76 16 103 16 26 0 45 4 42 9 -7 12 19 20 45 13 24 -6 128 16 136 29 3 4
25 8 50 8 25 0 55 5 66 11 21 11 83 19 148 19 19 0 49 0 65 1 17 1 37 1 45 1
33 -1 156 22 168 31 7 5 74 12 149 14 111 4 145 8 180 25 36 17 64 21 156 21
91 0 118 4 146 19 25 14 51 19 101 17 37 -1 72 1 77 4 6 4 37 6 70 6 33 -1 69
4 80 10 11 5 23 8 26 5 3 -3 15 0 27 6 17 9 33 9 67 0 39 -9 51 -8 82 7 20 9
59 18 86 19 28 1 69 6 93 12 24 5 45 6 48 1 8 -14 38 -11 73 7 22 11 47 15 73
11 28 -4 57 1 89 14 50 19 79 17 79 -7 0 -19 49 -18 74 1 11 9 41 15 69 15 27
0 63 6 80 14 32 14 215 49 233 45 22 -6 150 14 169 27 10 8 29 14 40 14 11 0
30 7 42 15 11 8 40 17 64 21 24 4 50 11 57 17 8 6 17 5 27 -3 11 -10 25 -10
66 0 29 7 71 10 100 6 38 -5 53 -3 65 9 9 9 33 15 59 15 24 0 79 13 124 31 69
26 83 29 103 17 15 -8 50 -11 99 -9 42 1 79 -1 82 -6 4 -6 25 -6 55 0 32 7 90
7 166 1 64 -5 120 -6 124 -2 4 3 36 8 72 11 100 7 250 30 250 39 0 4 23 8 51
8 28 0 60 6 72 12 23 13 31 15 117 22 77 6 94 10 102 21 6 8 117 15 253 15 17
0 54 8 83 18 29 11 65 17 80 14 37 -7 226 -5 402 4 80 4 190 8 245 10 154 5
252 11 262 17 28 17 884 0 947 -19 10 -4 22 0 27 7 7 11 50 14 201 14 110 0
231 6 281 13 99 15 127 12 160 -21 16 -16 32 -21 65 -20 24 1 49 7 57 13 18
15 42 2 77 -41 16 -18 33 -29 41 -26 8 3 19 1 25 -5 6 -6 12 -6 16 1 4 6 2 11
-4 11 -17 0 -40 26 -40 44 0 13 7 15 40 10 24 -4 45 -2 54 5 21 18 45 2 52
-35 6 -33 30 -43 28 -12 -1 11 9 15 35 14 25 -1 36 -6 36 -16 0 -38 99 -3 125
44 9 18 22 26 40 26 15 0 35 9 45 20 10 12 25 18 32 16 7 -3 13 -1 13 4 0 6
-4 10 -10 10 -17 0 -11 24 8 36 10 6 33 15 52 19 45 10 62 32 47 60 -15 27 -9
55 16 76 12 10 18 18 13 19 -5 0 -1 9 9 20 23 25 29 125 8 142 -9 7 -12 21 -8
38 4 19 0 31 -15 45 -15 14 -17 21 -9 32 7 7 10 14 8 16 -4 2 -22 13 -76 48
-18 12 -33 26 -33 33 0 16 -63 46 -95 46 -14 0 -24 5 -23 12 4 14 -39 38 -68
38 -12 0 -35 7 -50 15 -72 37 -113 29 -114 -21 0 -29 -76 -51 -100 -29 -21 19
-176 26 -172 8 1 -8 -10 -14 -30 -15 -18 0 -46 -2 -63 -4 -16 -2 -66 -7 -110
-12 -85 -10 -191 -37 -200 -53 -9 -14 -60 -11 -104 7 -22 9 -64 16 -93 16
-136 2 -318 2 -368 1 -267 -7 -320 -7 -320 -1 0 3 -159 5 -352 4 -270 -2 -360
-6 -383 -16 -25 -11 -109 -18 -259 -19 -15 0 -35 -6 -42 -12 -18 -14 -112 -13
-130 2 -9 7 -19 7 -36 -2 -12 -7 -54 -14 -93 -16 -90 -4 -256 -21 -275 -29
-15 -6 -149 -23 -225 -30 -156 -13 -240 -14 -305 -6 -72 10 -76 9 -97 -14 -23
-25 -57 -32 -108 -21 -16 3 -57 3 -90 -1 -40 -5 -75 -3 -105 5 -49 15 -75 10
-67 -11 7 -19 -22 -26 -110 -26 -41 0 -75 -5 -79 -11 -4 -7 -28 -9 -68 -5
-141 14 -218 10 -311 -17 -106 -31 -194 -47 -287 -50 -45 -2 -73 -8 -85 -19
-13 -12 -30 -15 -65 -11 -26 3 -53 1 -60 -4 -7 -6 -44 -14 -83 -18 -40 -4 -77
-14 -87 -22 -14 -13 -35 -15 -102 -11 -80 5 -86 4 -107 -18 -13 -14 -29 -22
-35 -20 -7 3 -18 -2 -26 -11 -10 -12 -26 -14 -79 -10 -50 4 -72 2 -88 -10 -18
-12 -66 -15 -264 -17 -133 -1 -246 -4 -252 -8 -5 -3 -56 -9 -113 -12 -56 -4
-142 -16 -190 -27 -48 -11 -109 -23 -137 -26 -27 -2 -54 -8 -58 -13 -5 -4 -35
-6 -68 -3 -43 4 -59 2 -59 -6 0 -8 -9 -11 -27 -7 -37 8 -144 -10 -155 -26 -6
-10 -8 -10 -8 0 0 16 -51 15 -141 -3 -47 -9 -85 -12 -104 -7 -32 9 -143 -4
-161 -19 -7 -6 -23 -5 -40 2 -23 8 -31 8 -38 -4 -8 -12 -16 -13 -40 -4 -22 8
-31 7 -34 -2 -3 -8 -15 -9 -38 -5 -22 4 -34 2 -34 -5 0 -6 -13 -11 -29 -11
-33 0 -83 -16 -91 -30 -10 -16 -176 -53 -275 -60 -55 -4 -113 -13 -130 -21
-16 -7 -61 -14 -100 -16 -200 -8 -222 -11 -265 -30 -31 -14 -76 -22 -147 -26
-56 -4 -110 -11 -120 -16 -10 -6 -61 -15 -113 -21 -52 -6 -117 -15 -145 -20
-151 -30 -191 -33 -258 -18 -62 14 -67 14 -72 -3 -5 -13 -22 -18 -85 -24 -43
-4 -83 -5 -88 -1 -4 3 -22 -2 -38 -11 -23 -13 -68 -17 -224 -19 -109 -1 -215
-8 -240 -15 -26 -6 -124 -12 -230 -13 -102 -1 -190 -4 -196 -8 -5 -4 -46 -9
-90 -12 -90 -6 -130 -13 -154 -26 -9 -5 -37 -7 -63 -5 -26 2 -49 0 -52 -6 -4
-5 -33 -9 -65 -9 -32 0 -62 -4 -65 -10 -3 -6 -29 -10 -56 -10 -28 0 -60 -5
-72 -12 -12 -6 -49 -10 -84 -9 -34 1 -71 -3 -82 -9 -11 -6 -68 -11 -125 -11
-80 -1 -106 -4 -110 -15 -3 -8 -17 -13 -33 -12 -47 5 -223 -13 -229 -23 -3 -5
-13 -9 -23 -9 -10 0 -24 -7 -32 -16 -8 -10 -19 -13 -33 -8 -12 4 -88 9 -171
10 -175 4 -216 7 -232 17 -17 11 -134 -8 -143 -23 -6 -10 -36 -14 -105 -16
-52 -1 -99 -4 -102 -8 -10 -10 -61 -7 -65 4 -1 5 -34 10 -73 11 -67 2 -100 -2
-174 -21 -25 -7 -39 -6 -49 3 -18 14 -53 11 -67 -7 -12 -15 -299 -40 -340 -30
-18 4 -30 2 -35 -6 -6 -9 -28 -13 -72 -11 -35 1 -77 -3 -93 -10 -17 -6 -70
-13 -118 -14 -63 -2 -93 -7 -105 -19 -16 -13 -144 -40 -168 -35 -5 1 -16 0
-24 -3 -37 -14 -172 -26 -240 -21 -51 3 -111 -2 -190 -16 -63 -11 -133 -23
-155 -26 -22 -4 -57 -11 -77 -16 -20 -5 -72 -9 -115 -8 -43 0 -93 -2 -111 -5
-19 -3 -66 -8 -105 -11 -40 -3 -85 -10 -102 -15 -16 -6 -65 -8 -107 -6 -43 2
-80 0 -84 -3 -3 -3 -18 -6 -32 -7 -164 -6 -298 -16 -306 -23 -6 -5 -56 -9
-111 -8 -83 1 -107 -3 -140 -20 -41 -21 -109 -34 -206 -38 -31 -2 -66 -8 -77
-14 -11 -6 -63 -10 -115 -10 -52 1 -103 -4 -115 -10 -11 -6 -46 -11 -77 -11
-39 0 -57 -4 -61 -14 -5 -12 -31 -13 -152 -9 -121 5 -153 3 -177 -10 -35 -17
-90 -23 -122 -12 -29 9 -31 50 -3 67 11 7 20 21 20 30 0 10 4 18 10 18 5 0 27
17 48 38 21 21 46 41 55 45 10 4 27 22 38 42 12 19 26 35 33 35 16 0 66 52 66
68 0 7 8 16 18 19 24 10 42 29 42 47 0 8 9 21 19 28 11 8 23 26 26 40 4 14 17
30 29 36 13 5 23 16 24 24 1 7 5 33 8 57 5 33 15 53 40 77 19 17 34 40 34 50
0 10 11 30 25 44 15 15 35 59 49 106 13 46 29 80 38 82 10 2 13 13 10 38 -3
23 1 41 12 53 10 11 18 43 21 82 8 102 26 178 51 215 13 19 24 39 24 45 0 5 6
18 12 29 10 15 10 24 1 39 -7 11 -8 22 -2 28 5 5 9 30 10 56 1 26 8 52 16 58
7 6 13 23 13 38 0 14 7 39 15 55 9 16 13 37 10 47 -5 16 1 18 52 18 32 0 75 7
95 15 21 9 64 16 97 16 47 0 64 4 79 20 16 17 20 18 45 5 15 -7 27 -10 27 -4
0 5 11 9 24 9 14 0 28 5 31 11 4 6 13 8 21 5 18 -7 135 13 151 26 7 6 28 7 48
4 24 -5 45 -1 67 10 23 12 62 18 124 20 50 1 116 10 147 19 51 15 65 15 139 2
84 -15 181 -17 193 -6 3 4 41 5 82 3 52 -3 79 -1 84 7 8 13 75 15 164 5 53 -6
293 -17 335 -16 14 1 46 1 72 1 32 0 48 5 52 15 4 10 13 13 27 9 40 -13 144
-11 142 2 -4 16 43 17 53 2 10 -16 75 -1 102 24 27 25 90 25 128 0 28 -18 63
-12 105 20 34 24 158 41 198 25 17 -6 34 -4 58 7 35 17 115 13 141 -8 9 -7 18
-5 30 6 18 17 107 23 155 12 20 -6 27 -4 27 7 0 13 8 13 53 3 34 -7 66 -9 91
-3 25 6 43 5 50 -2 12 -12 66 -13 66 -1 0 16 34 23 152 28 75 4 134 1 167 -7
41 -10 55 -10 66 0 12 10 22 10 47 -1 24 -10 33 -10 36 -1 2 7 14 12 27 12 13
0 26 4 29 9 3 5 27 7 53 4 59 -6 136 -5 278 3 101 6 114 4 150 -15 39 -20 95
-29 95 -13 1 27 17 32 56 18 27 -9 46 -11 57 -4 10 5 28 8 41 6 13 -1 31 4 41
12 18 15 88 17 310 12 33 -1 92 -1 130 -1 39 0 70 0 70 -1 0 -6 508 -3 512 3
2 4 13 5 24 2 55 -18 205 -20 225 -4 11 9 64 11 202 9 28 -1 52 3 52 8 0 5 75
9 168 9 118 0 174 4 192 13 29 16 280 22 359 9 35 -5 59 -5 67 2 8 6 26 6 55
0 24 -6 73 -11 108 -11 35 0 92 -5 128 -12 60 -11 64 -11 79 10 13 20 21 21
110 16 63 -4 100 -2 108 6 18 14 46 19 132 24 40 2 77 6 83 10 6 4 77 4 158 1
92 -4 158 -3 174 3 20 8 33 7 54 -4 15 -8 41 -14 57 -14 24 0 29 4 24 16 -5
14 -1 15 31 9 21 -4 40 -10 43 -13 3 -4 44 -7 92 -7 49 0 89 -4 91 -8 3 -11
183 -12 227 -2 19 5 78 9 130 10 124 1 243 15 252 29 5 7 45 11 103 11 73 0
98 3 105 15 6 10 32 15 92 17 46 1 99 4 118 7 39 5 310 19 350 19 14 -1 48 -3
75 -6 50 -6 135 16 135 34 0 5 35 8 78 7 42 -1 86 1 97 5 61 20 185 34 234 26
30 -4 57 -6 61 -4 4 3 59 7 121 11 149 7 287 32 315 55 14 11 18 10 34 -11 18
-24 19 -24 82 -11 35 7 67 17 73 22 5 5 28 9 52 9 31 0 48 6 60 20 10 11 24
20 32 20 20 0 80 -20 114 -37 32 -17 57 -4 57 28 0 28 76 27 85 -1 9 -29 55
-28 55 1 0 19 4 21 32 15 18 -4 59 -3 92 0 45 5 60 11 63 25 6 21 33 25 50 8
8 -8 21 -8 45 -1 18 6 51 11 73 10 22 0 55 2 72 6 27 6 32 5 27 -8 -4 -11 -1
-16 10 -16 9 0 16 5 16 10 0 17 51 33 115 35 77 3 95 7 89 16 -8 14 14 19 42
9 15 -6 40 -22 57 -36 29 -24 30 -24 49 -7 15 14 33 17 72 15 38 -3 56 1 65
12 17 20 30 20 50 2 9 -8 46 -17 83 -21 59 -6 68 -5 79 12 10 16 20 19 58 15
40 -3 49 0 70 22 19 20 34 26 66 26 26 0 65 12 106 31 52 26 78 32 141 33 42
2 83 8 90 14 8 6 36 11 62 10 29 0 51 4 56 12 5 9 20 10 46 6 89 -16 135 -18
149 -6 8 6 27 10 42 9 15 -2 34 0 41 5 7 4 25 5 41 1 18 -4 42 0 65 11 35 17
37 17 77 -4 22 -12 51 -22 64 -22 13 0 27 -5 30 -11 4 -6 21 -9 39 -8 67 4 96
-1 96 -17 0 -24 150 -16 178 9 11 10 23 17 28 16 23 -7 76 15 90 37 9 13 24
24 34 24 10 0 22 9 25 20 7 22 60 54 75 45 5 -3 26 -3 45 1 26 5 37 12 41 31
6 21 11 23 33 18 30 -8 130 -14 286 -17 61 -1 112 -4 115 -7 3 -3 23 -18 45
-33 39 -26 42 -27 82 -13 35 12 46 12 68 1 16 -9 54 -13 105 -11 56 1 80 -2
80 -10 0 -22 76 -48 119 -41 25 4 48 1 66 -8 27 -14 60 -11 50 4 -7 11 87 20
106 9 12 -6 29 0 60 21 29 20 57 30 82 30 24 0 40 5 43 15 4 8 17 15 30 15 13
0 24 4 24 9 0 5 28 14 62 20 36 6 66 17 71 26 4 8 14 15 21 15 12 0 31 52 27
73 0 4 6 7 14 7 8 0 15 4 15 9 0 5 12 12 28 16 44 11 72 33 72 60 0 13 4 26 9
29 5 3 8 50 6 103 -3 111 -13 139 -82 220 -47 56 -99 79 -114 51 -12 -21 -83
-45 -150 -51 -47 -4 -65 -1 -105 19 -39 20 -62 24 -136 24 -49 0 -98 5 -108
10 -13 7 -28 6 -47 -2 -15 -6 -50 -11 -78 -10 -42 0 -54 5 -77 31 -15 17 -37
31 -48 31 -11 0 -20 7 -20 15 0 9 -9 15 -22 15 -13 0 -53 9 -90 19 -60 16 -70
17 -88 4 -24 -17 -70 -10 -70 11 0 10 -12 12 -49 8 -30 -2 -51 0 -55 7 -8 12
-59 15 -70 4 -12 -12 -95 -14 -115 -3 -14 7 -22 6 -31 -5 -11 -13 -63 -26
-157 -39 -39 -6 -44 -4 -57 23 -17 32 -79 52 -99 32 -6 -6 -19 -11 -28 -11 -9
0 -19 -9 -22 -20 -4 -14 -14 -20 -33 -20 -15 0 -35 -7 -45 -16 -14 -12 -21
-13 -37 -3 -25 16 -69 4 -77 -20 -7 -25 -70 -62 -90 -55 -8 4 -15 1 -15 -4 0
-6 -8 -12 -17 -14 -10 -2 -18 -12 -18 -23 0 -16 -6 -20 -30 -18 -95 7 -167 2
-189 -12 -15 -10 -33 -14 -50 -9 -16 4 -26 2 -26 -5 0 -6 11 -11 25 -11 14 0
25 -6 25 -13 0 -24 -13 -28 -32 -10 -13 12 -33 16 -68 14 -27 -1 -59 3 -70 9
-17 9 -22 7 -30 -16 -10 -25 -13 -26 -63 -21 -28 4 -61 9 -73 12 -13 4 -27 0
-38 -10 -15 -16 -19 -16 -54 2 -31 15 -45 17 -84 9 -27 -5 -48 -13 -48 -18 0
-4 -46 -8 -103 -8 -57 0 -107 -4 -113 -10 -5 -5 -24 -12 -41 -13 -17 -2 -41
-11 -54 -21 -26 -18 -134 -23 -144 -6 -9 15 -41 12 -59 -5 -20 -20 -124 -20
-152 0 -12 8 -24 12 -27 8 -13 -13 -143 -3 -174 14 -31 16 -32 16 -50 -5 -11
-13 -37 -25 -65 -31 -40 -7 -49 -5 -66 11 -18 19 -21 19 -50 4 -18 -9 -56 -16
-90 -16 -46 0 -61 -4 -66 -16 -3 -9 -4 -19 -2 -23 6 -9 -191 -6 -216 3 -10 3
-25 8 -32 10 -15 5 -98 -33 -104 -47 -2 -4 -8 -4 -13 -1 -21 13 -131 5 -148
-10 -14 -13 -42 -16 -128 -16 -71 0 -113 -4 -115 -11 -2 -6 -28 -19 -58 -30
-29 -10 -57 -24 -60 -30 -4 -6 -35 -10 -71 -9 -71 1 -99 -1 -99 -7 0 -3 5 -13
10 -24 9 -16 7 -19 -9 -19 -10 0 -30 6 -44 13 -30 16 -326 15 -336 -1 -3 -5
-69 -12 -146 -15 -136 -6 -269 -22 -310 -37 -11 -4 -30 -3 -43 3 -17 8 -26 6
-40 -6 -10 -10 -34 -17 -54 -17 -19 0 -80 -7 -135 -15 -56 -8 -108 -12 -117
-9 -9 3 -24 0 -33 -7 -11 -10 -57 -15 -157 -17 -78 -2 -145 -7 -151 -12 -5 -4
-39 -8 -75 -10 -98 -4 -121 -6 -170 -18 -25 -6 -72 -11 -105 -11 -250 -2 -324
0 -352 8 -20 6 -46 6 -70 -1 -21 -5 -141 -12 -268 -15 -284 -6 -285 -6 -285
-16 0 -5 -24 -6 -52 -2 -123 14 -349 7 -398 -12 -8 -4 -90 -7 -181 -8 -123 0
-171 -4 -183 -14 -11 -10 -31 -11 -71 -6 -30 3 -60 3 -67 -2 -16 -9 -141 -4
-148 7 -3 5 -50 9 -105 10 -55 0 -118 1 -140 2 -22 0 -92 -4 -155 -9 -69 -6
-122 -6 -133 -1 -11 6 -23 6 -30 0 -7 -6 -77 -9 -165 -8 -84 1 -155 -1 -157
-5 -3 -3 -35 -5 -72 -3 -42 1 -76 -3 -88 -10 -24 -16 -129 -20 -154 -7 -11 6
-33 6 -58 1 -75 -17 -234 -14 -271 5 -23 12 -43 15 -65 10 -39 -9 -96 -10
-257 -3 -73 3 -130 1 -137 -5 -9 -6 -23 -5 -43 3 -34 14 -160 5 -160 -11 0 -6
-9 -5 -22 2 -14 8 -48 9 -102 5 -45 -4 -105 -2 -135 4 -40 7 -63 7 -87 -2 -28
-10 -39 -9 -69 5 -39 19 -90 23 -80 7 4 -6 -6 -10 -22 -10 -15 0 -54 -6 -85
-14 -32 -7 -58 -9 -58 -5 0 14 -38 10 -72 -7 -19 -10 -41 -13 -57 -9 -46 11
-101 13 -107 4 -3 -6 -13 -8 -22 -5 -26 8 -292 15 -292 8 0 -4 -53 -6 -118 -5
-64 1 -124 2 -132 2 -8 -1 -67 -2 -130 -4 -63 -2 -151 -9 -195 -16 -44 -7
-115 -11 -158 -10 -42 1 -121 -3 -175 -9 -53 -5 -131 -12 -172 -15 -75 -5
-214 -28 -281 -47 -20 -6 -43 -7 -50 -3 -15 10 -76 11 -86 2 -3 -4 -37 -7 -74
-7 -38 0 -79 -5 -92 -11 -18 -8 -37 -8 -73 1 -97 23 -104 23 -104 6 0 -13 -14
-16 -82 -17 -46 -1 -94 -1 -108 1 -63 6 -152 3 -230 -8 -47 -6 -161 -13 -255
-17 -216 -7 -366 -22 -400 -39 -20 -11 -34 -12 -57 -4 -24 9 -31 7 -43 -8 -12
-17 -29 -19 -169 -20 -109 0 -159 -4 -170 -13 -8 -7 -47 -14 -87 -15 -54 -2
-74 -7 -81 -19 -16 -29 -97 -60 -139 -53 -21 3 -40 2 -44 -4 -3 -5 -19 -10
-34 -10 -15 0 -31 -4 -36 -9 -6 -5 -26 -11 -45 -13 l-35 -3 -1 70 c-1 46 -8
91 -23 130 -12 32 -20 69 -17 81 4 13 1 26 -5 29 -6 4 -8 13 -5 20 2 7 -11 28
-30 46 -19 18 -34 41 -34 52 0 10 -11 33 -25 51 -14 18 -25 38 -25 44 0 7 -8
20 -17 30 -10 10 -43 47 -73 82 -59 70 -150 160 -161 160 -3 0 -27 19 -52 42
-87 81 -197 148 -244 148 -22 0 -53 24 -53 41 0 5 -11 9 -24 9 -14 0 -37 10
-53 23 -21 18 -41 24 -81 24 -29 0 -58 5 -65 11 -6 6 -30 13 -52 17 -57 10
-175 46 -181 56 -3 5 -18 9 -34 9 -16 0 -32 5 -35 10 -4 6 -23 10 -43 10 -104
-3 -363 12 -401 22 -39 10 -44 9 -54 -8 -29 -52 -94 -83 -112 -54 -3 6 -15 10
-26 10 -47 0 -89 84 -95 190 -3 38 -9 59 -21 68 -14 10 -18 29 -19 86 -1 42
-8 92 -19 119 -21 54 -15 77 19 77 37 0 56 10 56 31 0 33 47 36 105 6 56 -30
95 -35 95 -12 0 8 7 15 15 15 8 0 15 4 15 9 0 11 39 3 57 -11 8 -7 22 -3 42
12 24 16 47 21 101 23 38 0 73 -3 77 -7 14 -14 75 -36 98 -36 12 0 28 7 36 16
8 10 22 14 38 11 14 -3 63 3 108 14 45 11 94 17 108 13 21 -5 25 -3 25 17 0
21 5 24 38 25 47 2 73 7 92 19 8 5 32 12 55 17 22 4 69 14 105 23 36 9 99 17
140 18 59 2 85 8 115 26 22 14 51 23 64 23 14 -1 27 2 31 7 3 5 30 11 61 14
31 2 62 8 70 13 8 4 39 9 69 11 30 1 71 8 90 16 19 8 40 12 47 10 7 -2 21 0
32 6 11 6 52 13 92 16 45 3 78 10 89 20 13 12 38 15 101 14 80 -1 131 9 143
29 7 12 114 13 122 1 4 -7 12 -5 23 5 83 78 166 106 327 110 49 1 95 6 102 10
8 4 40 10 73 13 32 3 59 10 59 16 0 5 14 7 34 3 21 -4 43 -1 62 9 16 8 37 12
47 9 10 -3 25 0 34 8 15 12 114 18 282 18 24 0 50 5 58 11 9 8 51 12 113 11
55 0 100 4 100 9 0 5 26 9 58 10 31 1 68 4 82 8 16 5 39 1 63 -9 27 -12 50
-15 82 -10 25 4 48 4 50 0 7 -12 126 -22 138 -12 23 18 67 23 81 9 16 -16 97
-21 106 -7 8 12 134 15 330 7 206 -9 216 -10 239 -31 14 -13 26 -16 38 -10 10
4 34 9 53 10 95 6 211 15 260 20 30 3 62 5 70 5 64 -2 152 0 188 5 28 4 47 2
58 -7 17 -14 81 -13 121 2 19 7 30 6 42 -4 29 -26 85 -49 136 -58 42 -7 52 -6
70 11 19 18 40 20 235 24 188 4 218 2 243 -12 27 -16 29 -16 43 3 13 17 28 20
117 22 234 5 280 3 299 -14 16 -14 20 -14 36 -1 22 18 54 20 91 5 21 -9 53
-10 113 -4 45 5 106 10 133 11 28 1 57 4 65 7 55 22 135 32 270 34 85 2 163 6
172 10 9 4 39 2 65 -3 30 -7 52 -7 59 -1 7 5 27 9 45 8 109 -3 386 8 399 16
15 9 152 9 243 -1 39 -4 62 -2 72 6 10 8 38 11 82 8 76 -6 194 10 205 26 9 14
166 24 179 11 6 -6 22 -4 44 4 24 8 40 9 53 2 14 -7 25 -6 41 6 18 12 58 16
178 19 85 2 160 7 166 11 7 4 37 8 67 9 30 0 71 7 90 14 28 10 48 10 88 1 29
-6 72 -11 95 -11 24 0 48 -5 55 -12 8 -8 18 -9 34 -1 13 6 32 7 45 2 12 -4 38
-3 58 2 20 6 43 8 50 5 8 -3 18 1 24 8 6 7 22 11 35 9 13 -3 26 0 30 5 6 9 30
6 94 -14 12 -3 28 -1 36 5 18 15 73 18 105 7 20 -7 23 -5 18 8 -4 11 -1 16 9
16 11 0 14 -6 10 -16 -5 -13 3 -14 62 -9 107 10 292 12 292 4 0 -19 45 -19 95
0 31 12 70 21 87 21 16 0 52 8 78 17 45 16 51 16 108 0 45 -12 68 -14 87 -7
15 6 52 10 84 10 31 0 62 5 68 11 8 8 13 8 17 0 10 -15 46 -13 76 3 26 15 60
8 86 -19 18 -18 57 -19 84 -3 15 10 24 9 45 -2 23 -12 30 -12 60 4 33 18 35
18 76 -2 25 -12 47 -18 53 -13 6 5 32 11 58 14 35 5 47 3 52 -8 8 -21 26 -19
26 3 0 20 36 46 50 37 6 -4 17 1 26 9 8 9 27 19 42 22 15 4 35 14 45 23 21 17
59 17 95 -1 18 -9 28 -9 42 0 11 7 35 12 54 12 22 0 45 9 64 25 32 27 58 32
64 13 3 -9 23 -3 64 18 46 24 66 29 89 24 47 -12 122 -11 171 1 34 9 48 9 57
0 17 -17 59 -13 87 9 16 12 34 17 51 13 15 -3 37 1 50 8 14 8 62 14 119 15 52
1 111 6 130 12 19 6 70 20 113 32 73 19 81 20 110 5 25 -12 51 -14 132 -9 55
3 107 9 115 13 8 4 36 8 63 9 36 1 47 -2 47 -14 0 -8 6 -17 14 -20 7 -3 21
-23 31 -44 11 -24 26 -41 41 -44 13 -4 24 -11 24 -16 0 -6 6 -10 13 -10 8 0
22 -9 32 -20 10 -11 27 -20 37 -20 11 0 16 -4 13 -10 -3 -5 2 -11 12 -12 64
-5 80 -4 98 8 28 20 41 18 75 -16 25 -24 34 -28 54 -20 13 5 26 6 29 3 9 -8
74 35 97 64 11 14 20 39 20 55 0 41 34 55 96 38 36 -10 49 -11 52 -2 5 16 34
15 58 -3 26 -20 43 -19 62 4 21 24 74 29 195 17 83 -8 89 -7 112 14 21 20 27
21 58 10 29 -11 43 -10 92 5 46 15 63 16 87 7 16 -6 44 -8 63 -5 19 3 41 1 48
-5 8 -7 43 -8 112 -1 130 13 131 13 147 26 12 10 70 24 93 23 56 -3 108 -8
148 -14 29 -5 47 -5 47 1 0 20 49 30 154 32 59 1 112 3 116 6 23 14 115 20
166 10 21 -4 35 -1 44 9 10 13 15 13 37 -1 24 -16 26 -16 50 15 13 18 29 32
35 32 5 0 21 9 35 20 28 22 89 27 95 8 3 -9 25 -7 86 6 57 14 85 16 94 9 7 -6
32 -11 56 -11 24 -1 49 -6 57 -12 17 -14 36 -9 57 16 16 19 25 20 132 17 71
-2 116 0 116 6 0 5 5 22 10 36 l10 27 44 -25 c24 -13 49 -21 56 -17 8 5 7 9
-6 14 -16 6 -16 8 1 26 23 26 43 25 66 -1 10 -12 23 -18 30 -14 6 4 39 9 72
10 34 2 63 8 65 14 5 16 20 13 44 -9 27 -25 38 -25 45 -1 3 11 10 21 16 24 19
7 87 -4 87 -14 0 -19 37 -8 50 15 11 22 17 24 59 19 33 -4 52 -1 62 8 40 40
99 79 117 79 11 0 27 11 36 25 9 14 21 25 26 25 16 0 49 33 44 42 -3 5 6 21
21 36 23 23 26 33 22 69 -2 24 -1 43 4 43 5 0 9 6 9 14 0 7 7 19 16 27 14 12
14 14 -1 25 -9 7 -14 18 -10 24 8 13 -14 150 -24 150 -3 0 -20 12 -36 28 -47
43 -72 52 -167 59 -49 3 -91 10 -94 15 -10 15 -43 8 -48 -10 -9 -27 -52 -48
-69 -34 -15 13 -45 8 -102 -18 -24 -10 -54 -15 -76 -13 -24 3 -50 -2 -75 -15
-31 -16 -49 -18 -80 -13 -22 4 -46 11 -53 15 -6 4 -22 1 -34 -7 -33 -21 -75
-31 -135 -31 -41 -1 -57 -6 -68 -20 -18 -26 -95 -27 -143 -3 -25 12 -45 15
-70 10 -20 -4 -41 -6 -48 -5 -6 2 -14 -2 -18 -8 -3 -5 -40 -10 -81 -10 -48 0
-86 -6 -105 -15 -20 -11 -41 -14 -64 -9 -20 3 -41 2 -48 -4 -11 -9 -57 -17
-152 -27 -22 -2 -62 -10 -88 -19 -42 -13 -53 -13 -83 0 -25 10 -40 12 -54 4
-27 -14 -77 -12 -108 4 -15 8 -53 22 -84 31 -56 16 -59 16 -93 -5 -19 -12 -56
-23 -82 -26 -28 -2 -55 -12 -68 -24 -16 -15 -35 -20 -73 -20 -37 0 -56 -5 -69
-19 -15 -16 -26 -18 -68 -11 -27 4 -54 6 -58 3 -5 -3 -60 -4 -124 -4 -68 1
-128 -3 -148 -10 -27 -10 -42 -10 -73 0 -37 13 -42 12 -63 -8 -30 -28 -73 -27
-130 3 -34 18 -58 24 -93 22 -33 -2 -50 2 -53 11 -7 18 -38 17 -53 -2 -9 -11
-16 -12 -25 -5 -7 6 -86 12 -183 14 -153 3 -174 5 -207 25 -42 24 -87 27 -147
7 -24 -8 -62 -17 -86 -20 -24 -4 -54 -13 -66 -21 -13 -9 -30 -13 -38 -10 -8 3
-34 2 -58 -4 -30 -7 -48 -6 -61 2 -13 8 -26 7 -56 -6 -29 -14 -59 -17 -133
-14 -52 2 -131 -1 -175 -6 -44 -5 -112 -11 -152 -12 -39 -1 -78 -6 -85 -12 -7
-7 -51 -14 -98 -18 -47 -4 -107 -13 -135 -20 -27 -7 -74 -10 -102 -8 -39 4
-59 1 -77 -11 -14 -9 -40 -16 -58 -16 -18 0 -55 -7 -82 -15 -27 -8 -86 -15
-130 -15 -45 0 -86 -4 -93 -8 -7 -4 -41 -5 -77 -2 -36 3 -76 1 -88 -4 -13 -5
-61 -11 -108 -14 -139 -7 -123 -7 -327 13 -63 7 -74 5 -97 -12 -20 -16 -35
-19 -68 -15 -98 11 -275 -9 -326 -38 -25 -14 -50 -21 -66 -18 -15 3 -42 0 -60
-6 -36 -12 -497 -14 -534 -1 -12 3 -32 0 -44 -6 -26 -15 -336 -22 -353 -9 -5
4 -26 12 -46 18 -29 8 -39 6 -58 -9 -20 -16 -41 -19 -156 -19 -72 0 -188 -4
-256 -9 -68 -6 -162 -13 -208 -16 -46 -3 -121 -12 -165 -20 -45 -8 -133 -19
-196 -24 -63 -6 -125 -13 -137 -17 -14 -4 -23 -2 -23 5 0 7 -8 7 -27 0 -17 -6
-56 -8 -98 -4 -38 3 -80 2 -93 -2 -14 -6 -52 -4 -95 3 -46 8 -83 10 -102 4
-54 -16 -203 -32 -235 -25 -19 4 -36 2 -45 -5 -8 -7 -53 -14 -101 -16 -48 -2
-91 -7 -97 -11 -5 -3 -23 -7 -39 -9 -16 -2 -39 -11 -51 -19 -34 -24 -76 -19
-87 10 -12 30 -20 31 -43 4 -11 -12 -25 -18 -34 -15 -9 4 -23 0 -32 -8 -13
-11 -35 -12 -116 -5 -220 18 -298 20 -319 5 -12 -7 -50 -16 -86 -19 -36 -4
-90 -11 -120 -17 -30 -5 -87 -12 -126 -15 -61 -4 -75 -2 -97 16 -21 15 -34 19
-62 13 -22 -4 -41 -2 -50 6 -20 17 -287 49 -357 43 -46 -4 -66 -1 -112 21 -88
42 -106 43 -175 6 -47 -25 -68 -31 -98 -27 -21 2 -73 -3 -117 -11 -64 -13 -82
-13 -99 -3 -11 8 -52 17 -90 22 -38 5 -75 13 -81 18 -14 11 -51 4 -81 -15 -12
-8 -26 -10 -34 -5 -7 5 -74 7 -150 5 -119 -4 -140 -7 -165 -25 -27 -20 -30
-21 -62 -5 -19 8 -71 18 -116 21 -45 4 -85 8 -90 11 -4 3 -55 0 -114 -6 -239
-24 -420 -28 -454 -10 -12 6 -38 6 -76 -1 -31 -6 -65 -8 -75 -6 -11 3 -19 2
-19 -2 0 -3 -46 -7 -102 -7 -57 0 -155 -3 -218 -6 -70 -3 -120 -1 -128 5 -7 5
-30 7 -55 2 -23 -4 -71 -8 -107 -11 -36 -2 -122 -7 -192 -12 -70 -5 -146 -6
-170 -2 -29 6 -48 5 -58 -4 -30 -24 -91 -38 -137 -31 -49 7 -158 -9 -210 -31
-17 -8 -47 -14 -66 -14 -20 0 -47 -4 -61 -10 -14 -5 -74 -12 -133 -16 -64 -4
-114 -12 -123 -19 -8 -7 -44 -16 -80 -19 -95 -8 -132 -16 -155 -36 -14 -12
-46 -20 -105 -25 -47 -4 -90 -11 -96 -16 -14 -11 -177 -49 -215 -49 -16 0 -44
-7 -60 -16 -17 -9 -49 -14 -73 -13 -23 2 -47 0 -52 -4 -6 -3 -24 -3 -41 2 -20
6 -35 4 -48 -5 -10 -8 -34 -14 -52 -14 -30 0 -48 -6 -93 -32 -24 -14 -32 -15
-110 -27 -41 -6 -100 -16 -130 -21 -38 -7 -71 -6 -106 2 -61 13 -115 5 -138
-21 -14 -15 -28 -17 -94 -13 -54 3 -86 0 -103 -9 -13 -7 -33 -12 -43 -10 -22
3 -94 -17 -114 -32 -7 -6 -26 -10 -42 -9 -17 0 -30 -3 -30 -8 0 -5 -30 -6 -68
-3 -55 4 -70 2 -81 -11 -16 -20 -53 -21 -89 -2 -43 21 -92 27 -131 15 -28 -8
-46 -7 -80 5 -48 16 -61 14 -61 -10 0 -12 -9 -14 -44 -9 -28 5 -46 3 -50 -4
-12 -19 -56 -12 -80 13 -31 30 -56 40 -56 21 0 -20 -73 -20 -151 0 -32 9 -91
17 -132 18 -58 2 -87 9 -133 33 -53 26 -59 32 -59 61 0 25 -11 42 -48 80 -47
47 -48 49 -42 93 4 25 13 52 20 60 7 8 19 32 26 53 7 21 21 45 30 53 13 11 16
25 12 49 -3 19 -1 35 6 39 6 4 11 16 11 28 0 11 8 22 20 25 11 3 23 16 26 29
3 13 19 35 34 47 15 13 30 33 34 44 4 11 30 32 59 46 48 23 147 110 147 129 0
4 6 8 14 8 7 0 41 27 74 60 34 33 66 60 72 60 6 0 10 9 8 19 -3 22 38 70 105
121 26 19 46 41 47 48 0 8 13 26 29 42 33 34 71 95 71 116 0 25 30 63 46 57 9
-3 14 2 14 15 0 12 4 24 10 27 5 3 10 18 10 33 0 16 8 34 20 42 11 8 20 19 20
25 0 6 9 27 20 48 12 21 18 47 15 57 -4 12 4 30 24 52 17 20 31 48 33 68 2 28
12 40 58 71 30 21 61 39 67 39 7 0 22 9 33 20 26 26 50 26 57 0 7 -25 14 -25
47 1 l27 21 28 -26 c18 -17 34 -24 44 -20 10 3 29 -1 43 -11 33 -22 93 -12
129 21 14 13 29 24 33 24 3 0 21 -14 39 -32 l32 -31 19 23 c15 18 22 21 38 12
22 -12 173 -7 222 7 41 12 82 -4 82 -31 0 -25 30 -35 45 -15 18 25 61 31 87
13 31 -22 71 -20 93 4 10 11 25 20 33 20 8 0 20 7 26 15 9 11 21 12 56 6 41
-8 106 -19 213 -36 36 -6 38 -5 44 25 4 22 14 35 32 42 26 10 121 6 153 -7 12
-5 17 0 20 17 3 26 45 38 59 16 7 -11 11 -10 18 2 6 8 20 15 33 15 14 0 23 6
23 15 0 8 5 23 11 34 10 16 14 17 35 6 13 -7 37 -24 53 -37 27 -23 62 -26 134
-13 1 0 2 7 2 15 0 8 5 15 11 15 5 0 7 5 4 10 -7 12 38 14 49 3 4 -5 12 -8 17
-8 5 0 20 -13 32 -29 25 -31 47 -29 47 5 0 19 4 20 40 14 33 -6 40 -4 40 9 0
13 13 16 72 16 52 0 76 4 89 16 17 15 21 15 52 -5 44 -27 107 -29 107 -3 0 30
19 41 53 31 38 -10 167 -7 167 3 0 14 48 8 79 -9 29 -17 30 -17 54 5 19 18 29
21 49 13 14 -5 72 -7 129 -4 110 6 110 6 234 -1 100 -6 144 -14 171 -31 25
-16 45 -15 68 4 13 11 28 12 69 4 29 -6 79 -9 112 -7 62 3 162 -13 171 -28 3
-4 25 -8 50 -8 25 0 54 -5 65 -10 13 -8 25 -7 40 0 14 8 24 8 33 1 21 -17 105
-11 119 9 16 23 52 34 117 35 89 2 190 17 190 28 0 6 6 3 13 -7 12 -16 22 -18
61 -12 36 6 52 4 64 -7 27 -24 140 -41 159 -25 9 7 13 7 13 -2 0 -8 17 -10 56
-8 40 3 57 1 61 -9 6 -15 59 -18 68 -3 4 6 58 9 133 7 123 -3 128 -2 173 25
53 32 77 35 94 11 11 -15 16 -16 38 -4 21 11 38 13 107 11 31 -1 96 8 128 18
18 6 48 8 68 5 30 -5 36 -3 41 16 4 17 10 20 32 15 14 -4 30 -11 35 -15 13
-12 76 -12 76 0 0 4 50 14 111 21 91 11 112 11 119 0 13 -21 161 -5 180 19 19
23 52 31 74 19 11 -6 22 -6 30 1 7 6 48 16 92 22 43 6 84 14 89 19 6 4 32 11
59 15 27 4 61 12 75 17 14 6 31 10 36 8 6 -2 22 -4 36 -5 15 -2 36 -6 47 -9
14 -5 27 0 40 15 27 28 71 50 86 42 6 -3 20 -14 31 -23 31 -27 85 -33 107 -14
10 10 18 23 18 31 0 22 28 27 46 8 10 -10 31 -16 53 -15 56 3 61 1 54 -16 -6
-15 0 -16 48 -9 58 8 97 9 169 4 25 -1 96 -1 157 0 91 2 114 5 122 18 12 22
177 29 185 7 6 -17 53 -19 58 -3 8 25 548 33 593 9 20 -11 30 -11 52 0 18 8
83 14 178 17 163 4 210 13 218 43 5 20 27 28 27 10 0 -5 17 -10 38 -10 21 0
46 -6 57 -14 39 -26 63 -28 85 -6 17 17 33 21 78 21 97 0 303 9 397 18 56 5
97 4 109 -2 18 -9 119 -15 276 -15 225 -1 295 -5 302 -15 5 -9 16 -9 40 1 28
10 35 10 45 -4 6 -9 16 -13 22 -9 6 3 20 0 32 -8 17 -13 25 -13 47 -2 30 15
57 19 115 17 30 -2 40 -7 44 -23 5 -17 12 -20 39 -17 24 3 35 0 38 -12 3 -11
4 -11 5 3 1 14 6 17 24 11 12 -4 25 -11 28 -16 3 -5 22 -6 42 -3 20 4 42 3 49
-1 11 -7 168 -17 248 -15 14 0 32 -3 40 -6 25 -10 40 -12 35 -4 -6 11 41 35
57 28 8 -2 22 1 33 9 27 20 43 17 47 -8 2 -13 11 -24 22 -26 30 -6 95 19 101
39 6 16 8 17 43 2 43 -19 206 -20 228 -2 8 6 14 7 14 2 0 -18 51 -33 110 -33
33 0 60 -4 60 -9 0 -21 32 -18 59 4 25 22 38 25 97 23 38 -1 107 6 154 16 47
10 97 19 111 20 14 2 31 6 38 11 7 4 23 2 36 -5 18 -10 28 -9 54 4 17 9 35 14
40 12 5 -3 21 4 36 16 24 19 33 20 108 13 45 -5 116 -8 157 -7 138 1 329 10
338 16 21 13 189 25 232 16 30 -5 46 -5 49 2 9 25 43 48 73 48 18 0 41 9 53
20 20 19 27 19 128 10 l106 -10 49 35 c52 37 71 42 104 24 16 -9 24 -7 42 10
24 22 42 27 48 12 2 -5 32 -10 68 -12 l65 -4 20 37 c14 27 33 43 69 58 27 11
60 20 73 20 13 0 32 7 40 16 12 12 27 14 64 9 29 -4 49 -3 49 3 0 10 147 42
197 42 17 0 35 4 38 10 4 6 16 5 33 -4 41 -21 62 -21 127 -2 60 18 160 22 243
10 25 -4 47 -2 55 4 23 19 129 42 197 43 36 0 88 5 115 10 28 6 69 13 93 16
33 4 46 11 54 29 10 22 18 24 73 24 43 0 66 5 75 15 7 8 17 15 22 15 5 0 24
11 41 24 18 14 44 28 60 31 17 5 27 14 27 26 0 11 7 19 16 19 8 0 28 12 44 28
15 15 34 28 41 30 8 2 24 13 37 25 20 18 22 29 19 84 -3 54 0 66 18 83 18 17
31 20 76 16 177 -17 201 -17 195 -1 -7 19 3 19 28 0 18 -14 18 -15 2 -15 -16
0 -16 -2 -2 -15 18 -18 86 -18 79 0 -6 17 44 47 67 40 11 -4 20 -13 20 -21 0
-11 10 -14 38 -12 37 3 41 9 31 47 -2 7 1 15 7 18 7 2 11 -4 10 -14 0 -10 6
-18 14 -18 10 0 15 10 15 28 -1 21 4 27 20 27 12 0 26 -5 32 -11 9 -9 19 -8
38 5 23 15 31 16 56 5 42 -17 56 -1 35 39 -9 17 -16 32 -16 34 0 2 25 3 55 3
54 0 56 -1 67 -33 10 -26 17 -32 33 -28 11 3 43 11 72 18 30 8 61 24 75 39 28
30 105 47 137 30 11 -6 29 -11 40 -11 12 0 21 -6 21 -13 0 -7 9 -18 20 -25 17
-11 21 -10 27 5 7 19 17 32 45 64 17 18 18 18 53 -2 l35 -21 58 29 c32 17 75
33 95 37 21 4 48 18 59 32 12 13 28 24 35 24 18 0 53 59 53 91 0 16 9 32 22
41 17 11 21 24 21 61 0 26 3 47 6 47 3 0 6 21 6 46 0 25 6 48 13 52 8 6 6 12
-7 21 -10 8 -16 21 -14 30 2 10 -2 23 -11 30 -10 9 -13 22 -9 43 4 22 2 33
-10 40 -10 5 -17 14 -17 21 -1 15 -49 71 -56 64 -3 -3 -21 1 -40 9 -19 8 -45
12 -59 8 -18 -5 -25 -3 -23 7 2 8 -13 15 -41 20 -24 5 -49 14 -57 20 -16 13
-145 13 -154 0 -11 -19 -56 -23 -69 -7 -19 23 -30 20 -41 -10 -9 -24 -14 -25
-46 -19 -30 5 -40 2 -61 -19 -20 -20 -29 -23 -39 -15 -7 6 -18 8 -23 5 -5 -4
-13 -1 -16 5 -4 5 -13 8 -20 6 -6 -3 -24 6 -38 19 -14 13 -34 24 -43 24 -9 0
-22 8 -29 17 -11 15 -15 15 -30 3 -9 -7 -14 -22 -12 -32 11 -39 -34 -94 -57
-71 -10 10 -115 13 -121 3 -3 -5 -14 -6 -24 -3 -10 3 -22 0 -25 -6 -9 -14 -53
-14 -61 -1 -3 6 -17 10 -30 10 -13 0 -27 5 -30 10 -8 14 -55 1 -79 -22 -21
-19 -23 -20 -98 -20 -26 -1 -45 -4 -43 -9 8 -12 -33 -21 -65 -14 -17 4 -30 11
-30 16 0 17 -29 9 -45 -13 -15 -21 -17 -22 -26 -5 -12 21 -29 22 -29 2 0 -17
-9 -19 -28 -6 -9 5 -28 2 -50 -9 -51 -24 -206 -34 -222 -14 -16 19 -99 18
-124 -1 -11 -8 -30 -15 -42 -15 -13 0 -30 -8 -40 -17 -19 -19 -77 -22 -98 -4
-11 9 -24 8 -57 -5 -24 -10 -48 -20 -54 -24 -5 -4 -22 -5 -38 -3 -47 7 -105
-14 -109 -40 -3 -19 -8 -22 -45 -20 -33 1 -43 -2 -48 -17 -3 -10 -23 -25 -44
-33 -21 -9 -55 -27 -75 -40 -20 -14 -44 -23 -55 -20 -11 3 -27 0 -37 -5 -12
-7 -25 -6 -40 0 -16 8 -39 4 -95 -15 -41 -14 -96 -28 -124 -31 -74 -8 -157
-25 -183 -38 -18 -9 -25 -9 -31 0 -10 16 -227 10 -243 -6 -7 -7 -19 -12 -28
-12 -8 0 -23 -9 -32 -19 -9 -11 -36 -25 -60 -31 -24 -7 -60 -18 -80 -25 -22
-8 -40 -9 -44 -4 -3 5 1 9 8 10 7 0 3 5 -10 11 -20 10 -27 7 -55 -23 -30 -33
-39 -36 -125 -47 -51 -7 -98 -10 -103 -6 -6 3 -37 1 -69 -6 -52 -11 -61 -11
-75 4 -12 11 -26 14 -53 10 -20 -3 -38 -7 -40 -9 -2 -1 -35 6 -75 16 -71 19
-147 18 -147 -2 0 -5 -10 -9 -22 -9 -64 0 -244 -68 -255 -97 -3 -7 -16 -13
-30 -13 -13 0 -31 -6 -39 -14 -8 -8 -34 -18 -58 -21 -25 -4 -47 -13 -50 -21
-3 -8 -13 -14 -22 -14 -16 0 -115 -65 -167 -110 -16 -14 -37 -44 -47 -67 -17
-39 -40 -58 -40 -33 0 6 -11 10 -24 10 -19 0 -28 -10 -45 -49 -11 -27 -21 -54
-21 -60 0 -35 -128 -52 -196 -26 -32 12 -58 15 -93 10 -39 -5 -49 -3 -54 9 -7
19 -30 21 -56 4 -14 -8 -29 -8 -64 0 -58 15 -108 15 -144 1 -35 -15 -203 -11
-222 4 -16 14 -157 10 -185 -5 -24 -13 -126 -11 -176 2 -20 5 -45 19 -55 30
-23 26 -55 26 -62 0 -6 -23 -4 -23 -77 -9 -54 11 -58 11 -82 -12 -27 -25 -32
-26 -234 -21 -36 1 -78 1 -95 1 -16 -1 -52 4 -80 10 -67 16 -233 21 -237 9 -3
-9 -512 -13 -634 -6 -19 1 -42 -7 -59 -20 -19 -15 -32 -19 -44 -13 -22 12
-117 12 -216 -1 -44 -6 -134 -11 -200 -13 -66 -2 -146 -6 -177 -10 -37 -5 -62
-4 -70 3 -9 7 -27 7 -61 -1 -37 -8 -52 -7 -73 3 -22 12 -29 12 -57 -2 -51 -26
-94 -29 -166 -13 -36 9 -77 13 -91 9 -41 -11 -63 -12 -100 -1 -34 10 -134 10
-347 0 -62 -3 -121 0 -150 7 -68 17 -151 18 -180 3 -31 -16 -115 -17 -130 -2
-8 8 -30 8 -79 0 -54 -8 -71 -8 -84 3 -10 8 -34 11 -75 8 -33 -3 -95 -5 -137
-6 -47 -1 -82 -6 -90 -14 -6 -6 -34 -12 -60 -12 -26 0 -48 -4 -48 -10 0 -5
-13 -10 -30 -10 -16 0 -30 -5 -30 -11 0 -8 -14 -10 -39 -6 -22 3 -42 2 -45 -1
-8 -8 -66 -8 -66 0 0 9 -44 -3 -51 -15 -5 -6 -19 -6 -39 2 -45 15 -75 14 -90
-4 -7 -8 -23 -15 -35 -15 -12 0 -28 -6 -34 -14 -6 -7 -22 -11 -36 -8 -19 3
-25 0 -25 -12 0 -10 -4 -15 -10 -11 -9 6 -50 -13 -61 -29 -4 -4 -27 -7 -53 -5
-34 3 -46 1 -46 -10 0 -9 -8 -11 -26 -7 -14 4 -31 3 -37 -3 -7 -5 -54 -15
-105 -22 -81 -11 -98 -11 -135 3 -43 16 -63 15 -181 -3 -53 -9 -73 -8 -92 1
-16 9 -27 10 -36 3 -24 -19 -93 -14 -116 7 -26 25 -41 26 -38 3 2 -10 -7 -28
-20 -40 -21 -19 -33 -21 -134 -19 -107 2 -130 -2 -133 -20 -1 -5 -11 -8 -22
-6 -43 7 -102 7 -140 -1 -22 -5 -49 -10 -60 -11 -11 -2 -27 -6 -35 -9 -40 -14
-50 -15 -86 -6 -43 11 -75 14 -242 23 -96 6 -113 5 -118 -9 -7 -18 -35 -20
-52 -3 -10 10 -15 10 -22 -2 -8 -12 -40 -15 -177 -16 -157 -1 -237 -7 -273
-22 -20 -7 -114 -2 -120 8 -10 14 -50 31 -50 20 0 -14 -63 -13 -111 2 -29 8
-45 8 -62 0 -59 -29 -208 -19 -299 19 -27 11 -58 17 -71 14 -13 -4 -55 3 -95
14 -50 14 -80 17 -99 11 -60 -18 -174 -30 -193 -20 -10 5 -45 10 -78 10 -45 0
-66 5 -85 21 -21 15 -31 18 -46 10 -12 -7 -60 -9 -123 -5 -56 3 -122 5 -145 5
-28 1 -43 5 -43 13 0 22 -47 41 -72 28 -13 -6 -47 -13 -75 -16 -44 -4 -55 -2
-66 13 -8 13 -25 19 -51 19 -27 0 -52 9 -83 31 -56 40 -193 78 -193 53 0 -4
-35 -8 -77 -10 -62 -2 -81 -6 -94 -21 -15 -18 -19 -18 -83 -4 -46 11 -71 12
-78 5 -7 -7 -21 -3 -46 11 -30 18 -50 20 -146 19 -103 -1 -112 -3 -128 -24
-39 -50 -39 -50 -82 -44 -22 4 -45 11 -51 17 -16 16 -70 10 -87 -10 -9 -11
-34 -23 -55 -26 -21 -4 -52 -13 -70 -21 -17 -8 -40 -14 -52 -14 -22 0 -61 -36
-61 -56 0 -6 -7 -14 -15 -18 -8 -3 -15 -13 -15 -22 0 -9 -16 -34 -36 -56 -24
-27 -34 -46 -31 -60 5 -18 2 -20 -30 -16 -29 4 -37 0 -46 -19 -14 -31 -19 -32
-247 -46 -41 -3 -90 -8 -108 -12 -24 -5 -39 -2 -52 10 -13 12 -29 15 -66 10
-27 -4 -67 -2 -89 3 -27 6 -49 5 -70 -4 -27 -11 -78 -18 -113 -15 -17 1 -42
62 -42 102 0 18 7 40 16 50 12 14 16 46 19 146 4 156 2 144 18 142 45 -6 50
18 9 53 -25 21 -27 28 -24 76 2 28 -1 66 -7 83 -6 17 -13 61 -17 97 -3 42 -16
89 -34 127 -15 33 -31 79 -34 103 -6 41 -6 42 14 32 25 -13 52 3 48 28 -6 31
28 37 79 14 26 -12 59 -21 73 -21 14 1 35 -2 47 -6 18 -6 23 -3 29 19 3 14 12
26 20 26 8 0 14 5 14 10 0 14 118 10 147 -5 15 -8 51 -11 91 -9 53 2 70 7 80
22 11 17 19 18 50 11 62 -14 73 -12 66 15 -5 23 -4 24 73 26 207 8 280 0 305
-30 35 -43 138 -27 138 21 0 15 5 19 15 15 8 -3 38 -8 67 -12 29 -4 59 -11 65
-17 7 -5 25 -7 40 -4 16 3 48 1 72 -5 47 -12 61 -3 61 38 0 25 28 40 44 24 16
-16 48 -12 71 10 40 37 216 56 253 27 6 -5 25 -7 41 -4 16 4 44 2 62 -3 18 -5
48 -6 69 -1 26 6 47 4 71 -6 18 -7 61 -14 96 -14 35 -1 65 -4 67 -8 6 -9 257
-7 321 3 31 5 66 4 90 -3 24 -6 43 -7 50 -1 11 9 78 5 96 -6 5 -3 9 0 9 6 0 8
21 11 68 9 37 -1 80 3 96 9 16 7 38 10 49 6 12 -4 48 -7 81 -8 41 -1 76 -9
108 -24 39 -19 50 -21 67 -11 16 10 25 10 47 0 24 -10 29 -10 37 4 7 14 18 16
56 10 25 -4 54 -14 64 -23 14 -13 22 -14 37 -4 28 17 147 27 173 14 45 -22
187 -34 187 -16 0 20 36 22 60 4 24 -18 43 -17 70 5 20 17 88 24 125 14 22 -7
31 -5 38 6 6 11 13 13 26 6 19 -11 62 -4 72 11 3 5 32 5 69 -1 56 -9 65 -8 87
9 17 13 33 17 58 13 25 -4 42 0 66 18 32 23 56 26 191 28 26 0 56 5 67 11 11
5 48 12 83 15 141 10 194 17 213 29 13 8 50 13 100 12 44 -1 86 3 94 9 14 10
81 20 207 31 65 5 73 4 86 -15 13 -19 19 -20 40 -10 18 8 31 8 44 1 12 -6 36
-7 62 -2 27 4 58 3 79 -3 21 -7 37 -7 41 -1 16 22 204 70 224 58 4 -3 15 -1
25 4 11 7 21 6 31 -4 16 -17 46 -18 74 -3 12 6 50 12 85 12 35 0 63 4 63 9 0
15 181 1 209 -16 5 -3 16 1 25 9 10 11 36 16 81 17 36 0 68 5 71 10 3 4 8 7
12 4 4 -2 61 -7 127 -11 172 -11 187 -13 218 -21 21 -5 31 -2 41 11 9 13 15
15 20 7 10 -17 46 -15 46 3 0 15 61 31 80 20 6 -3 25 -2 43 4 17 6 76 12 131
14 56 3 101 9 105 16 4 6 25 11 47 11 21 -1 66 2 99 4 33 3 108 7 167 9 59 2
110 6 113 9 3 3 24 2 45 -2 46 -8 112 -6 129 4 6 4 19 2 30 -4 11 -5 46 -13
78 -16 32 -2 59 -9 61 -14 7 -18 57 -10 94 15 34 23 40 24 92 13 46 -9 66 -8
114 6 32 9 73 16 92 16 18 0 42 8 52 17 16 14 23 15 38 5 29 -18 65 -15 85 8
10 12 25 18 33 15 8 -3 32 0 53 5 22 6 72 13 112 14 40 2 95 6 122 9 28 3 69
6 92 6 23 0 53 7 67 16 15 10 33 14 50 9 14 -3 32 -2 39 3 7 6 42 7 86 3 64
-6 77 -5 93 10 20 18 80 30 155 30 29 0 55 7 74 21 29 21 123 30 290 28 40 0
68 6 95 22 31 17 58 22 139 24 114 3 171 12 200 31 11 8 30 14 42 14 34 0 113
23 113 33 0 4 9 6 19 2 11 -3 22 -1 26 5 4 6 13 9 21 6 8 -3 23 3 34 14 21 21
79 40 123 40 15 0 44 7 65 16 40 17 229 27 238 12 8 -13 41 -9 54 7 19 23 70
45 103 45 17 0 40 9 53 21 18 17 26 19 42 10 31 -16 124 -14 150 5 12 8 27 12
32 9 6 -3 10 1 10 9 0 18 16 21 25 6 4 -6 14 -10 23 -9 10 1 24 0 32 -4 37
-14 70 -17 70 -6 0 6 11 8 28 4 16 -3 42 0 58 6 35 15 128 12 169 -6 36 -14
75 -4 75 21 0 13 6 15 28 10 83 -19 94 -19 104 -3 11 20 40 22 68 5 17 -11 22
-10 30 1 4 8 21 16 37 17 15 2 45 6 66 10 32 6 41 3 59 -16 17 -18 28 -21 64
-17 23 2 47 0 52 -5 14 -14 31 -2 42 28 6 14 18 24 29 24 11 0 26 9 34 20 11
16 21 19 41 14 14 -3 29 -10 32 -15 14 -24 73 -1 148 56 36 27 44 29 110 26
56 -2 75 1 85 13 8 9 22 16 32 16 10 0 33 8 51 19 18 10 76 24 128 31 52 8
110 22 128 32 23 13 60 20 120 22 48 3 101 10 117 16 17 7 40 12 53 11 13 0
42 4 65 10 23 6 74 10 112 10 39 0 102 6 142 14 93 19 147 19 163 0 11 -13 15
-13 30 5 10 11 29 20 43 20 14 0 30 7 35 17 7 11 27 18 66 21 31 2 56 8 56 13
0 5 -4 9 -10 9 -16 0 -11 27 6 34 9 3 30 -1 48 -9 18 -9 41 -17 51 -19 11 -3
39 -9 62 -14 36 -8 45 -7 63 10 17 16 28 18 63 12 51 -9 106 -8 262 4 150 12
173 8 191 -32 26 -58 39 -69 76 -60 18 5 43 7 56 7 12 -1 22 2 22 8 0 6 14 15
30 20 18 7 30 18 30 29 0 33 66 42 91 12 13 -15 30 -18 115 -16 109 2 136 8
127 30 -5 15 23 54 39 54 5 0 22 -10 38 -22 36 -26 131 -34 172 -14 15 8 45
17 68 21 22 4 38 11 35 15 -7 11 27 30 51 30 10 0 26 8 36 17 25 23 84 44 133
48 22 2 40 4 40 5 0 1 8 3 18 5 10 2 27 11 37 20 12 11 26 14 44 9 18 -4 26
-2 26 7 0 13 62 20 215 23 22 1 47 5 55 11 8 5 36 10 63 11 35 0 54 7 73 25
14 13 27 23 30 22 2 -2 20 -3 39 -3 31 0 35 3 35 25 0 14 -4 25 -10 25 -5 0
-10 7 -10 16 0 10 5 14 15 10 24 -9 104 5 99 18 -3 7 17 12 58 14 71 3 92 15
85 51 -3 15 3 35 14 51 26 34 51 128 43 162 -3 15 -18 37 -34 48 -15 11 -31
31 -34 44 -4 17 -11 23 -24 19 -11 -3 -35 9 -61 31 -27 23 -53 36 -71 36 -16
0 -33 6 -37 14 -10 18 -57 24 -157 19z m44 -52 c0 -6 -4 -13 -10 -16 -5 -3
-10 1 -10 9 0 9 5 16 10 16 6 0 10 -4 10 -9z m-230 -131 c0 -25 -4 -30 -25
-30 -31 0 -32 16 -2 41 28 24 27 24 27 -11z m80 -65 c-14 -16 -40 -20 -40 -6
0 10 17 19 39 20 11 1 11 -2 1 -14z m134 -31 c9 -24 0 -30 -38 -26 -56 7 -45
37 15 41 9 0 20 -6 23 -15z m76 -30 c0 -31 -23 -28 -28 4 -2 15 2 22 12 22 11
0 16 -9 16 -26z m-283 -21 c4 -10 19 -28 35 -41 23 -20 26 -26 15 -43 -15 -24
-26 -24 -58 4 -33 28 -42 53 -29 78 13 24 29 24 37 2z m167 -11 c2 -4 1 -14
-4 -22 -7 -11 -12 -12 -21 -3 -6 6 -8 16 -5 22 8 13 23 14 30 3z m286 -22 c0
-5 -9 -10 -20 -10 -11 0 -20 5 -20 10 0 6 9 10 20 10 11 0 20 -4 20 -10z
m-143 -16 c-3 -3 -12 -4 -19 -1 -8 3 -5 6 6 6 11 1 17 -2 13 -5z m-700 -40 c3
-8 -1 -23 -10 -31 -13 -13 -19 -14 -31 -4 -13 11 -13 15 2 32 20 23 31 24 39
3z m-1479 -72 c4 -14 -34 -16 -42 -3 -6 10 13 21 28 17 6 -1 12 -8 14 -14z
m-1138 -26 c0 -8 -7 -16 -15 -20 -15 -5 -21 14 -8 27 11 12 23 8 23 -7z m2974
4 c27 -10 35 -26 14 -28 -7 0 -37 -4 -65 -8 -49 -6 -53 -5 -53 13 0 11 3 23 7
26 10 10 68 8 97 -3z m-2874 -15 c6 3 19 0 30 -8 l21 -14 -21 -6 c-23 -6 -90
10 -90 22 0 16 13 20 32 10 10 -5 23 -7 28 -4z m2380 -16 c-6 -11 -15 -17 -21
-14 -5 4 -5 14 1 26 6 11 15 17 21 14 5 -4 5 -14 -1 -26z m641 18 c-1 -12 -15
-9 -19 4 -3 6 1 10 8 8 6 -3 11 -8 11 -12z m-2796 -7 c3 -6 -4 -14 -17 -19
-27 -10 -33 -7 -25 14 7 17 33 20 42 5z m41 -37 c-11 -11 -19 6 -11 24 8 17 8
17 12 0 3 -10 2 -21 -1 -24z m152 25 c-6 -18 -28 -21 -28 -4 0 9 7 16 16 16 9
0 14 -5 12 -12z m42 2 c0 -5 -7 -10 -15 -10 -8 0 -15 5 -15 10 0 6 7 10 15 10
8 0 15 -4 15 -10z m2120 -65 c0 -23 -18 -34 -33 -19 -7 7 14 44 25 44 5 0 8
-11 8 -25z m-2414 -79 c18 -14 18 -15 -8 -21 -35 -9 -53 2 -37 21 14 18 20 18
45 0z m144 0 c0 -3 -4 -8 -10 -11 -5 -3 -10 -1 -10 4 0 6 5 11 10 11 6 0 10
-2 10 -4z m483 -10 c21 0 22 -12 2 -20 -8 -3 -15 -12 -15 -20 0 -17 -22 -27
-39 -17 -7 5 -9 19 -5 40 5 25 10 30 23 25 9 -4 24 -7 34 -8z m-913 -26 c0 -5
-2 -10 -4 -10 -3 0 -8 5 -11 10 -3 6 -1 10 4 10 6 0 11 -4 11 -10z m760 -39
c0 -32 -59 -12 -60 20 0 3 14 4 30 1 20 -3 30 -10 30 -21z m430 -11 c0 -5 -7
-10 -16 -10 -8 0 -12 5 -9 10 3 6 10 10 16 10 5 0 9 -4 9 -10z m980 -1086 c0
-2 -7 -4 -15 -4 -8 0 -15 4 -15 10 0 5 7 7 15 4 8 -4 15 -8 15 -10z m-10680
-104 c0 -5 -2 -10 -4 -10 -3 0 -8 5 -11 10 -3 6 -1 10 4 10 6 0 11 -4 11 -10z
m10170 -20 c0 -5 -2 -10 -4 -10 -3 0 -8 5 -11 10 -3 6 -1 10 4 10 6 0 11 -4
11 -10z m284 -19 c33 -6 98 -11 145 -11 54 -1 95 -6 111 -15 23 -12 23 -14 7
-21 -10 -3 -42 -4 -70 0 -29 4 -81 9 -117 12 -36 3 -72 8 -80 12 -8 3 -33 7
-55 8 -22 1 -56 6 -75 10 l-35 8 40 7 c22 3 47 5 55 3 8 -2 42 -8 74 -13z
m326 -51 c0 -5 -4 -10 -9 -10 -6 0 -13 5 -16 10 -3 6 1 10 9 10 9 0 16 -4 16
-10z m128 -6 c6 -2 12 -11 12 -20 0 -12 -6 -15 -22 -11 -13 3 -36 9 -53 12
-49 11 -57 14 -50 25 5 8 78 5 113 -6z m105 -35 c-6 -6 -19 -9 -29 -6 -17 3
-16 5 6 14 28 12 39 8 23 -8z m67 -18 c12 -1 13 -3 1 -10 -14 -9 -48 -4 -56 9
-2 3 6 5 18 4 12 -1 29 -3 37 -3z m326 -28 c-10 -10 -19 5 -10 18 6 11 8 11
12 0 2 -7 1 -15 -2 -18z m1134 -53 c0 -5 -5 -10 -11 -10 -5 0 -7 5 -4 10 3 6
8 10 11 10 2 0 4 -4 4 -10z m-2580 -26 c0 -14 -12 -19 -23 -8 -9 9 4 35 14 28
5 -3 9 -12 9 -20z m699 -80 c2 -2 -15 -4 -38 -4 -25 0 -40 4 -36 10 5 8 63 3
74 -6z m-239 -4 c0 -12 -24 -12 -60 0 -21 7 -19 8 18 9 23 1 42 -3 42 -9z
m326 -55 c-4 -13 -12 -15 -29 -10 -12 4 -44 10 -72 14 -37 5 -45 9 -30 14 11
4 32 4 47 2 14 -3 37 -1 50 4 27 11 43 -1 34 -24z m184 -39 c-14 -14 -24 0
-16 21 6 15 8 15 16 3 6 -9 5 -19 0 -24z m424 -132 c20 -8 11 -24 -15 -24 -10
0 -19 7 -19 15 0 16 9 19 34 9z m-17596 -101 c7 -12 18 -14 39 -10 20 4 42 0
64 -12 19 -10 39 -16 46 -14 19 7 83 -103 83 -143 0 -27 5 -37 20 -41 18 -5
27 -35 20 -68 -1 -5 -2 -53 -1 -105 0 -149 -8 -215 -29 -238 -10 -11 -16 -22
-13 -25 2 -3 2 -15 -2 -26 -5 -18 -13 -19 -78 -17 -60 2 -76 -1 -95 -18 -23
-21 -28 -21 -176 11 -21 4 -31 1 -38 -11 -11 -19 -39 -21 -56 -4 -10 10 -15
10 -21 -1 -6 -9 -18 -11 -34 -7 -17 4 -41 -2 -76 -20 -39 -21 -54 -24 -64 -15
-10 8 -29 8 -67 1 -29 -5 -56 -10 -60 -10 -9 0 -23 39 -21 57 1 7 -5 24 -14
37 -15 23 -15 25 2 36 13 8 14 13 6 16 -17 8 -16 31 1 37 10 4 15 20 14 46 0
23 -4 38 -9 35 -15 -9 -10 8 8 28 11 12 17 36 18 64 0 25 5 48 11 52 7 4 13
16 15 27 3 13 13 21 30 23 19 2 28 11 35 35 6 23 14 31 27 29 16 -3 18 1 12
27 -4 19 -3 31 4 31 6 0 8 6 5 13 -2 7 17 31 46 54 49 40 51 41 115 35 l65 -5
0 37 c0 41 1 41 39 21 32 -16 41 -12 41 21 0 12 6 25 13 27 27 11 66 6 75 -10z
m14920 -181 c2 -7 -3 -12 -12 -12 -9 0 -16 7 -16 16 0 17 22 14 28 -4z m-2618
-2 c0 -5 -2 -10 -4 -10 -3 0 -8 5 -11 10 -3 6 -1 10 4 10 6 0 11 -4 11 -10z
m3690 -189 c0 -18 -18 -21 -30 -6 -10 13 -9 15 9 15 11 0 21 -4 21 -9z m-775
-181 c3 -5 1 -10 -4 -10 -6 0 -11 5 -11 10 0 6 2 10 4 10 3 0 8 -4 11 -10z
m-15350 -772 c19 -9 28 -9 37 0 19 19 73 14 93 -8 13 -14 18 -39 20 -89 l2
-70 -27 6 c-32 6 -49 -21 -23 -35 10 -6 14 -17 10 -28 -21 -69 -37 -100 -55
-109 -11 -5 -23 -17 -25 -27 -3 -10 -13 -18 -22 -18 -11 0 -15 -5 -12 -14 7
-17 -16 -68 -39 -87 -21 -17 -45 -20 -61 -7 -16 13 -18 -5 -3 -32 9 -16 5 -22
-19 -35 -17 -8 -44 -35 -61 -60 -17 -25 -37 -45 -45 -45 -8 0 -15 -7 -15 -15
0 -9 -8 -19 -17 -22 -21 -8 -69 -40 -101 -68 l-24 -20 -25 29 c-17 20 -23 36
-19 52 3 12 1 26 -4 29 -6 4 -10 23 -9 43 3 109 -11 213 -36 262 -21 42 -25
64 -25 123 2 89 7 107 29 107 26 0 61 42 55 65 -7 30 58 68 119 70 33 1 47 -2
47 -12 0 -18 15 -17 34 3 9 8 21 12 28 8 21 -13 138 -11 150 3 13 16 11 16 43
1z m-1457 -146 c2 -7 -3 -12 -12 -12 -9 0 -16 7 -16 16 0 17 22 14 28 -4z
m19462 -742 c3 0 -7 -8 -23 -16 -32 -17 -54 -10 -36 12 9 11 24 12 59 4z
m-3985 -360 c3 -5 1 -10 -4 -10 -6 0 -11 5 -11 10 0 6 2 10 4 10 3 0 8 -4 11
-10z m2585 -57 c0 -8 -13 -13 -35 -13 -33 0 -43 8 -28 23 11 12 63 3 63 -10z
m1025 -73 c3 -5 1 -10 -4 -10 -6 0 -11 5 -11 10 0 6 2 10 4 10 3 0 8 -4 11
-10z m-3645 -30 c0 -5 -6 -10 -14 -10 -8 0 -18 5 -21 10 -3 6 3 10 14 10 12 0
21 -4 21 -10z m-16510 -1352 c0 -5 -9 -4 -20 2 -11 6 -20 12 -20 14 0 2 9 2
20 -1 11 -3 20 -9 20 -15z m1690 -25 c0 -7 5 -13 10 -13 6 0 10 -8 8 -17 -2
-14 5 -19 32 -21 31 -2 37 1 48 28 8 16 19 30 25 30 15 0 107 -100 118 -128 5
-13 9 -52 9 -88 0 -36 6 -80 14 -98 8 -18 11 -45 9 -60 -3 -14 0 -32 6 -40 6
-7 14 -35 18 -62 3 -27 14 -60 24 -74 10 -14 20 -41 23 -60 2 -19 8 -46 14
-60 36 -94 36 -160 1 -160 -13 0 -19 -7 -19 -23 0 -12 -7 -32 -15 -44 -11 -15
-14 -34 -9 -62 5 -33 3 -41 -15 -50 -11 -7 -21 -20 -21 -29 0 -10 -8 -27 -18
-38 -10 -10 -21 -27 -25 -36 -3 -10 -14 -18 -24 -18 -12 0 -22 -13 -31 -41 -7
-22 -10 -44 -7 -49 3 -5 -10 -16 -30 -24 -26 -11 -35 -21 -35 -38 0 -66 -12
-93 -58 -128 -26 -19 -50 -34 -53 -33 -4 1 -16 -35 -26 -80 -18 -75 -22 -83
-49 -92 -16 -5 -34 -16 -39 -23 -8 -10 -22 -10 -65 -2 -72 14 -151 4 -148 -18
2 -10 -5 -18 -17 -20 -11 -2 -27 -10 -35 -17 -31 -26 -310 -50 -318 -26 -4 11
-42 16 -42 5 0 -4 8 -13 17 -20 26 -18 8 -29 -18 -10 -14 9 -28 12 -38 7 -29
-15 -130 -5 -151 14 -13 11 -20 14 -20 6 0 -8 -11 -11 -27 -9 -37 4 -43 40
-12 62 19 13 22 25 23 80 1 37 6 70 14 78 6 6 12 24 12 39 0 15 5 31 10 34 6
3 10 17 10 30 0 13 5 27 10 30 6 3 10 19 10 34 0 15 3 31 7 34 4 4 15 40 25
79 13 52 27 81 49 104 24 24 30 38 26 56 -10 38 3 66 40 88 19 11 31 25 27 31
-3 6 -2 21 4 32 6 12 13 43 17 69 3 25 13 52 20 58 8 7 15 20 15 29 0 10 11
28 25 41 14 13 25 30 25 37 0 15 16 45 43 82 9 13 17 39 17 57 0 25 7 38 30
54 16 12 33 32 36 46 4 13 14 30 23 37 9 6 23 32 31 56 8 25 25 57 37 72 13
15 23 32 23 37 0 6 8 17 18 24 20 15 43 83 36 103 -3 8 6 21 20 31 15 9 25 22
24 28 -4 23 14 56 30 56 10 0 25 -9 35 -20 14 -17 21 -18 37 -10 11 6 20 18
20 27 0 12 7 14 38 10 22 -4 47 -1 62 6 27 14 60 3 60 -20z m18535 -816 c23
-18 6 -30 -30 -21 -25 6 -31 15 -18 27 10 11 27 8 48 -6z m1005 -52 c0 -8 -6
-15 -14 -15 -17 0 -28 14 -19 24 12 12 33 6 33 -9z m-18088 -127 c18 18 74 14
118 -8 22 -11 59 -20 85 -20 25 0 45 -4 45 -10 0 -5 3 -9 8 -9 19 3 33 -3 54
-25 20 -21 100 -56 129 -56 5 0 23 -16 40 -35 17 -19 36 -35 43 -35 6 0 28
-15 47 -32 20 -18 46 -40 59 -48 12 -8 29 -30 37 -49 8 -18 22 -35 33 -38 10
-3 25 -24 34 -48 9 -23 26 -51 38 -61 11 -11 24 -28 29 -39 5 -11 15 -28 21
-38 10 -14 10 -19 1 -25 -9 -6 -10 -17 -3 -42 5 -18 7 -36 4 -39 -3 -3 -40 -7
-82 -8 -59 -1 -86 3 -114 17 -44 23 -128 18 -128 -6 0 -16 -2 -16 -24 -8 -9 3
-16 12 -16 18 0 8 -15 12 -42 10 -29 -1 -43 -6 -43 -15 0 -20 -44 -24 -51 -5
-9 22 -23 20 -17 -3 3 -10 -2 -21 -10 -24 -17 -6 -159 59 -170 79 -12 21 -26
17 -37 -11 -10 -27 -30 -34 -30 -10 0 11 -11 15 -42 14 -140 -3 -228 4 -228
18 0 8 -5 23 -11 35 -6 11 -13 74 -15 141 -12 329 -10 367 18 339 7 -7 17 2
33 31 13 25 29 43 41 44 10 0 37 5 59 11 31 7 44 6 58 -6 13 -12 20 -13 29 -4z
m8838 -418 c0 -5 -2 -10 -4 -10 -3 0 -8 5 -11 10 -3 6 -1 10 4 10 6 0 11 -4
11 -10z m5700 -4 c0 -3 -4 -8 -10 -11 -5 -3 -10 -1 -10 4 0 6 5 11 10 11 6 0
10 -2 10 -4z m-14545 -951 c66 -7 131 -15 145 -19 21 -5 22 -5 5 3 -18 9 -17
10 8 10 21 1 27 -4 27 -19 0 -11 5 -20 10 -20 6 0 9 -3 9 -7 -4 -24 4 -33 36
-42 44 -12 75 -4 75 20 0 17 8 19 60 19 35 0 60 -4 60 -11 0 -9 69 -44 75 -37
1 2 7 12 13 24 8 16 18 20 41 16 17 -2 31 0 31 5 0 12 68 33 107 33 17 0 36 7
43 15 7 8 19 15 28 15 21 0 52 -30 52 -50 0 -10 7 -20 14 -23 20 -8 20 -161 1
-191 -8 -12 -13 -37 -13 -57 0 -20 -5 -46 -11 -57 -6 -11 -11 -36 -11 -56 0
-19 -4 -38 -10 -41 -5 -3 -10 -14 -10 -24 0 -10 -9 -26 -20 -36 -12 -11 -20
-31 -20 -51 0 -23 -7 -38 -25 -52 -22 -18 -24 -24 -15 -47 8 -22 7 -31 -5 -45
-8 -9 -15 -24 -15 -34 0 -9 -13 -25 -30 -34 -21 -12 -30 -25 -30 -42 0 -16
-12 -34 -34 -52 -19 -15 -36 -39 -39 -57 -7 -33 -73 -105 -88 -96 -5 4 -17 -7
-26 -23 -9 -16 -32 -39 -50 -52 -18 -12 -33 -31 -33 -42 0 -12 -12 -24 -35
-34 -20 -8 -38 -21 -41 -28 -3 -8 -24 -27 -47 -43 -23 -15 -49 -36 -59 -45
-10 -10 -22 -18 -27 -18 -5 0 -11 -9 -14 -20 -5 -21 -41 -39 -127 -65 -62 -19
-91 -40 -83 -61 4 -10 -3 -14 -25 -14 -40 0 -62 -9 -62 -25 0 -20 -46 -45 -81
-45 -22 0 -37 -8 -52 -26 -20 -26 -23 -26 -97 -21 -42 3 -86 11 -97 18 -17 10
-27 9 -58 -5 -32 -15 -44 -16 -76 -7 -21 7 -43 21 -49 31 -6 12 -21 20 -35 20
-18 0 -26 7 -31 27 -4 16 -3 28 3 30 33 11 47 33 45 67 -2 27 1 36 13 36 8 0
15 8 15 18 0 18 41 62 58 62 5 0 20 11 33 25 26 27 49 31 78 14 14 -9 25 -8
51 5 18 9 46 16 61 16 17 0 32 7 38 19 6 10 22 22 36 25 29 7 31 18 9 51 -16
24 -16 25 10 25 16 0 37 -10 50 -25 28 -30 28 -30 71 -2 42 26 49 67 13 68
-18 0 -20 2 -6 7 9 4 30 19 47 35 17 15 37 27 45 27 8 0 17 9 21 19 3 11 17
26 30 35 22 15 23 20 18 89 -4 50 -2 76 6 81 6 4 11 16 11 26 0 10 8 23 17 29
19 10 19 8 -23 95 -34 70 -38 76 -59 76 -26 0 -65 27 -65 45 0 8 -11 22 -25
31 -14 9 -25 20 -25 24 0 5 -5 21 -10 35 -9 23 -13 25 -25 15 -9 -8 -15 -8
-15 -2 0 6 6 12 13 15 21 7 -10 34 -47 41 -38 7 -52 38 -37 78 5 13 7 45 4 71
-3 27 -1 52 5 60 6 7 10 26 10 42 -2 68 13 116 39 126 13 5 22 13 19 18 -3 5
15 2 42 -6 26 -9 101 -21 167 -28z m16358 -120 c-7 -21 -13 -19 -13 6 0 11 4
18 10 14 5 -3 7 -12 3 -20z m-18213 -31 c0 -14 7 -15 38 -10 20 4 57 8 82 10
25 1 52 5 60 7 9 2 16 -4 18 -17 2 -15 -3 -23 -18 -27 -16 -4 -20 -11 -15 -26
3 -11 -1 -33 -9 -50 -23 -43 -20 -61 14 -96 30 -31 30 -33 20 -81 -9 -40 -8
-56 3 -78 18 -33 12 -63 -15 -72 -12 -3 -17 -11 -14 -21 3 -8 6 -21 6 -29 0
-8 6 -14 13 -14 29 -1 81 -110 51 -110 -8 0 -14 -7 -14 -15 0 -8 8 -15 18 -15
27 0 42 -20 42 -57 0 -23 6 -36 18 -40 9 -4 23 -15 30 -25 7 -10 20 -18 28
-18 20 0 17 -23 -7 -43 -14 -13 -18 -24 -13 -40 3 -12 7 -22 8 -23 66 -39 146
-112 140 -128 -3 -7 4 -23 16 -36 21 -25 23 -33 14 -68 -5 -16 -16 -24 -44
-28 l-39 -6 2 -77 2 -76 -32 -3 c-20 -2 -33 -9 -33 -17 0 -9 -10 -14 -27 -13
-16 0 -80 -6 -143 -13 -131 -15 -209 -16 -219 -2 -11 16 -92 54 -103 47 -6 -4
-20 6 -33 22 l-23 28 -34 -18 c-29 -16 -38 -17 -58 -6 -20 11 -22 14 -8 24 17
13 13 36 -7 36 -7 0 -28 17 -46 38 -18 20 -39 36 -46 34 -20 -5 -50 15 -102
68 -26 28 -56 50 -65 50 -10 0 -32 10 -49 22 -18 13 -45 30 -62 38 -21 10 -30
22 -30 39 0 18 -8 27 -28 32 -46 12 -58 28 -51 65 3 19 3 42 -1 51 -5 10 -9
32 -10 48 -1 17 -3 33 -5 38 -1 4 -3 10 -4 15 -13 52 -14 80 -7 152 4 47 4 89
0 95 -14 14 -10 37 7 50 15 11 15 14 0 43 -11 21 -17 60 -18 110 l-2 77 38 1
c21 1 41 7 46 13 5 9 34 12 91 10 46 -1 98 1 114 5 17 4 40 9 51 11 14 3 23
15 27 33 4 22 14 31 41 39 20 6 38 8 41 3 2 -4 31 -6 62 -4 48 3 62 8 81 30
21 24 28 26 70 21 26 -2 56 -1 67 3 36 15 75 12 75 -6z m-1529 -361 c13 -15
11 -16 -20 -10 -18 4 -43 7 -55 7 -17 0 -18 2 -6 10 23 15 66 12 81 -7z m1466
-1737 c12 -11 -6 -18 -53 -19 -37 -2 -49 2 -52 14 -2 13 6 15 48 13 28 -1 54
-5 57 -8z"/>
<path d="M6790 11120 c8 -5 20 -10 25 -10 6 0 3 5 -5 10 -8 5 -19 10 -25 10
-5 0 -3 -5 5 -10z"/>
<path d="M22602 10839 c2 -6 8 -10 13 -10 5 0 11 4 13 10 2 6 -4 11 -13 11 -9
0 -15 -5 -13 -11z"/>
<path d="M4420 10795 c7 -8 16 -15 21 -15 5 0 6 7 3 15 -4 8 -13 15 -21 15
-13 0 -13 -3 -3 -15z"/>
<path d="M21130 9446 c0 -2 7 -6 15 -10 8 -3 15 -1 15 4 0 6 -7 10 -15 10 -8
0 -15 -2 -15 -4z"/>
<path d="M19966 6943 c-11 -11 -6 -23 9 -23 8 0 15 4 15 9 0 13 -16 22 -24 14z"/>
<path d="M24190 2510 l-35 -7 32 -2 c17 0 38 -4 47 -7 11 -4 16 -1 16 10 0 17
-5 18 -60 6z"/>
<path d="M24390 2470 c-23 -6 -22 -7 14 -14 43 -8 57 -2 29 12 -10 5 -29 6
-43 2z"/>
</g>
</svg>
